<?xml version="1.0" encoding="UTF-8" standalone="no"?>
<!-- Created with Inkscape (http://www.inkscape.org/) -->

<svg
   xmlns:dc="http://purl.org/dc/elements/1.1/"
   xmlns:cc="http://creativecommons.org/ns#"
   xmlns:rdf="http://www.w3.org/1999/02/22-rdf-syntax-ns#"
   xmlns:svg="http://www.w3.org/2000/svg"
   xmlns="http://www.w3.org/2000/svg"
   xmlns:sodipodi="http://sodipodi.sourceforge.net/DTD/sodipodi-0.dtd"
   xmlns:inkscape="http://www.inkscape.org/namespaces/inkscape"
   width="24in"
   height="12in"
   viewBox="0 0 2159.9998 1080"
   id="svg3342"
   version="1.1"
   inkscape:version="0.91 r13725"
   sodipodi:docname="PCR casing modified sheet 1.svg">
  <defs
     id="defs3344" />
  <sodipodi:namedview
     id="base"
     pagecolor="#ffffff"
     bordercolor="#666666"
     borderopacity="1.0"
     inkscape:pageopacity="0.0"
     inkscape:pageshadow="2"
     inkscape:zoom="0.39398361"
     inkscape:cx="1234.5574"
     inkscape:cy="384.42113"
     inkscape:document-units="px"
     inkscape:current-layer="layer1"
     showgrid="false"
     inkscape:window-width="1536"
     inkscape:window-height="801"
     inkscape:window-x="-8"
     inkscape:window-y="-8"
     inkscape:window-maximized="1"
     units="ft" />
  <metadata
     id="metadata3347">
    <rdf:RDF>
      <cc:Work
         rdf:about="">
        <dc:format>image/svg+xml</dc:format>
        <dc:type
           rdf:resource="http://purl.org/dc/dcmitype/StillImage" />
        <dc:title></dc:title>
      </cc:Work>
    </rdf:RDF>
  </metadata>
  <g
     inkscape:label="Layer 1"
     inkscape:groupmode="layer"
     id="layer1"
     transform="translate(0,27.637812)">
    <path
       id="path3371"
       d="m 1271.6927,54.6956 0,0 0.3905,-0.8363 0,0 0.2392,-0.8929 7e-4,0 0.08,-0.9177 3e-4,0 -0.08,-0.9212 -4e-4,0 -0.2388,-0.893 -10e-4,0 -0.3901,-0.8362 0,0 -0.5294,-0.7547 0,0 -0.653,-0.652 0,0 -0.7565,-0.5315 0,0 -0.8369,-0.3897 0,0 -0.8919,-0.2374 0,0 -0.9198,-0.082 0,0 -0.9199,0.082 0,0 -0.8918,0.2374 0,0 -0.8369,0.3933 0,0 -0.7565,0.5279 0,0 -0.6531,0.652 0,0 -0.5293,0.7547 0,0 -0.3905,0.8362 0,0 -0.2392,0.8929 -7e-4,0 -0.08,0.9177 -3e-4,0 0.08,0.9213 3e-4,0 0.2389,0.8929 10e-4,0 0.3901,0.8362 0,0 0.5293,0.7548 0,0 0.6531,0.6519 0,0 0.7565,0.5315 0,0 0.8369,0.3898 0,0 0.8919,0.2374 0,0 0.9198,0.082 0,0 0.9198,-0.082 0,0 0.8919,-0.2374 0,0 0.8369,-0.3933 0,0 0.7565,-0.528 0,0 0.6527,-0.652 0,0 z m 2.6469,78.1228 -0.5854,-1.2543 0,0 -0.7944,-1.1339 0,0 -0.9794,-0.9815 0,0 -1.1345,-0.7937 0,0 -1.2551,-0.5846 0,0 -1.3379,-0.3579 0,0 -1.3802,-0.1205 -0.01,0 -1.3797,0.1205 0,0 -1.3376,0.3579 -0.01,0 -1.2554,0.5846 0,0 -1.1346,0.7973 0,0 -0.9794,0.9815 0,0 -0.7944,1.1338 0,0 -0.5853,1.2544 0,0 -0.3583,1.3393 0,0 -0.1204,1.3819 -7e-4,0 0.1208,1.3784 3e-4,0.01 0.3586,1.3358 0,0.01 0.5854,1.2543 0,0 0.7944,1.1339 0,0 0.9794,0.9815 0,0 1.1345,0.7937 0,0 1.2554,0.5846 0,0 1.338,0.3579 0,0 1.3797,0.1205 0,0 1.3801,-0.1205 0,0 1.3376,-0.3579 0,0 1.2554,-0.5846 0,0 1.1346,-0.7973 0,0 0.9794,-0.9814 0,0 0.7947,-1.1339 0,0 0.5854,-1.2543 0,0 0.3582,-1.3394 10e-4,0 0.1205,-1.3819 3e-4,0 -0.1204,-1.3783 -4e-4,-0.01 -0.3586,-1.3359 z m -151.9818,-95.2689 0,0 0.7944,-1.1338 0,0 0.5854,-1.2579 0,0 0.3584,-1.3358 0,-0.01 0.1207,-1.3784 5e-4,0 -0.1208,-1.3819 -4e-4,0 -0.3585,-1.3393 0,0 -0.5853,-1.2544 0,0 -0.7944,-1.1338 0,-0.01 -0.9794,-0.978 0,0 -1.1346,-0.7937 0,0 -1.2553,-0.5846 0,0 -1.3378,-0.3579 0,0 -1.3798,-0.1205 0,0 -1.3798,0.1205 -0.01,0 -1.3379,0.3579 0,0 -1.2553,0.5881 0,0 -1.1346,0.7937 0,0 -0.9794,0.9815 0,0 -0.7944,1.1374 0,0 -0.5853,1.2544 0,0 -0.3586,1.3393 -10e-4,0 -0.1208,1.3784 -4e-4,0.01 0.1208,1.3783 4e-4,0 0.3582,1.3394 0,0 0.5854,1.2579 0,0 0.7946,1.1338 0,0 0.9793,0.978 0,0 1.1346,0.7972 0,0 1.2552,0.5882 0,0 1.3379,0.3579 0,0 1.3798,0.1205 0.01,0 1.3797,-0.1205 0,0 1.3379,-0.3614 0,0 1.2553,-0.5846 0,0 1.1346,-0.7937 0,0 z m -167.26387,-6.6543 0,0 0.3583,-1.3358 0,-0.01 0.5853,-1.2544 0,0 0.7944,-1.1338 0,0 0.9794,-0.978 0,0 1.1346,-0.7937 0,0 1.2554,-0.5846 0,0 1.3379,-0.3614 0,0 1.3798,-0.1205 0,0 1.3797,0.1205 0,0 1.338,0.3578 0,0 1.255,0.5882 0,0 1.1346,0.7973 0,0 0.9794,0.9779 0,0 0.7944,1.1339 0,0 0.5853,1.2579 0,0 0.3583,1.3358 7e-4,0.01 0.1205,1.3783 -4e-4,0 -0.1208,1.3819 0,0 -0.3586,1.3394 0,0 -0.5854,1.2543 0,0 -0.7944,1.1339 0,0 -0.9793,0.9815 0,0 -1.1346,0.7937 0,0 -1.2551,0.5846 0,0 -1.3379,0.3579 0,0 -1.3798,0.1205 0,0 -1.3797,-0.1205 0,0 -1.338,-0.3614 0,0 -1.2554,-0.5847 0,0 -1.1345,-0.7937 0,0 -0.9794,-0.9815 0,0 -0.7944,-1.1338 0,0 -0.5854,-1.2544 0,-0.01 -0.3586,-1.3358 -3e-4,0 -0.1208,-1.3819 3e-4,0 z m 1.5432,250.53663 0.8369,-0.3933 0,0 0.8918,-0.2374 0,0 0.9199,-0.082 0,0 0.9198,0.082 0,0 0.8919,0.2374 0,0 0.8369,0.3897 0,0 0.7565,0.5315 0,0 0.653,0.652 0,0 0.5294,0.7547 0,0 0.3901,0.8363 0,0 0.2388,0.8929 4e-4,0 0.08,0.9212 -3e-4,0 -0.081,0.9177 -7e-4,0 -0.2391,0.893 0,0 -0.3905,0.8362 0,0 -0.5294,0.7547 0,0 -0.6527,0.652 0,0 -0.7565,0.5279 0,0 -0.8369,0.3933 0,0 -0.8918,0.2375 0,0 -0.9199,0.082 0,0 -0.9198,-0.082 0,0 -0.8919,-0.2375 0,0 -0.8369,-0.3897 0,0 -0.7565,-0.5315 0,0 -0.653,-0.652 0,0 -0.5294,-0.7547 0,0 -0.3901,-0.8362 0,0 -0.2388,-0.8929 -4e-4,0 -0.08,-0.9213 3e-4,0 0.081,-0.9177 7e-4,0 0.2391,-0.8929 0,0 0.3905,-0.8363 0,0 0.5294,-0.7547 0,0 0.653,-0.652 0,0 0.7565,-0.5279 z m 308.63967,-0.3933 0.8919,-0.2374 0,0 0.9198,-0.082 0,0 0.9199,0.082 0,0 0.8918,0.2374 0,0 0.8369,0.3897 0,0 0.7565,0.5315 0,0 0.6531,0.652 0,0 0.5294,0.7547 0,0 0.3901,0.8363 0,0 0.2388,0.8929 3e-4,0 0.08,0.9212 -3e-4,0 -0.08,0.9177 -7e-4,0 -0.2392,0.893 0,0 -0.3905,0.8362 0,0 -0.5293,0.7547 0,0 -0.6527,0.652 0,0 -0.7565,0.5279 0,0 -0.8369,0.3933 0,0 -0.8919,0.2375 0,0 -0.9198,0.082 0,0 -0.9199,-0.082 0,0 -0.8918,-0.2375 0,0 -0.8369,-0.3897 0,0 -0.7565,-0.5315 0,0 -0.6531,-0.652 0,0 -0.5293,-0.7547 0,0 -0.3902,-0.8362 0,0 -0.2388,-0.8929 -3e-4,0 -0.08,-0.9213 3e-4,0 0.08,-0.9177 7e-4,0 0.2392,-0.8929 0,0 0.3905,-0.8363 0,0 0.5293,-0.7547 0,0 0.6531,-0.652 0,0 0.7565,-0.5279 0,0 0.8369,-0.3933 z m -356.14807,275.1768 -0.035,0 0,-1.063 0,-317.8347 10.5966,0 0.035,0 0,-176.57723 0,-0.5881 -10.5967,0 -0.035,0 0,-59.50989989 0,-0.1984 151.85657,0 0.5078,0 0,10.59449989 0,0.035 105.945,0 0.3543,0 0,-10.59449989 0,-0.035 130.6646,0 0.4373,0 0,0.1984 0,59.50979989 -10.5942,0 -0.035,0 0,176.57373 0,0.5917 10.5942,0 0.035,0 0,1.063 0,317.8347 -10.5942,0 -0.035,0 0,77.86769 0,0.26221 10.5945,0 0.035,0 0,35.31614 0,0.11693 -1.2989,0 -388.46487,0 0,-35.31615 0,-0.11692 10.5945,0 0.035,0 0,-77.8713 0,-0.2586 z M 1245.4595,24.7901 l 1.3376,-0.3615 0,0 1.3797,-0.1204 0.01,0 1.3798,0.1204 0.01,0 1.3379,0.3579 0,0 1.2551,0.5882 0,0 1.1345,0.7972 0,0 0.9794,0.978 0,0 0.7944,1.1339 0,0 0.5854,1.2578 0,0 0.3586,1.3359 3e-4,0.01 0.1205,1.3783 -4e-4,0 -0.1204,1.3819 0,0 -0.3586,1.3394 0,0 -0.5854,1.2543 0,0 -0.7944,1.1339 0,0 -0.9794,0.9815 0,0 -1.1345,0.7937 0,0 -1.2551,0.5846 -0.01,0 -1.3379,0.3579 0,0 -1.3798,0.1204 0,0 -1.3798,-0.1204 0,0 -1.3379,-0.3614 0,0 -1.2554,-0.5847 0,0 -1.1346,-0.7937 0,0 -0.9793,-0.9815 0,0 -0.7945,-1.1338 0,0 -0.5853,-1.2544 -10e-4,-0.01 -0.3586,-1.3358 -3e-4,0 -0.1209,-1.3819 4e-4,0 0.1208,-1.3819 10e-4,0 0.3582,-1.3358 0,-0.01 0.5854,-1.2543 0,0 0.7944,-1.1339 0,0 0.9794,-0.9779 0,0 1.1345,-0.7937 0,0 1.2554,-0.5847 z m -287.98267,22.2484 0.8919,-0.2374 0,0 0.9198,-0.082 0,0 0.9199,0.082 0,0 0.8918,0.2374 0,0 0.8369,0.3897 0,0 0.7565,0.5315 0,0 0.6531,0.652 0,0 0.5293,0.7547 0,0 0.3902,0.8363 0,0 0.2388,0.8929 3e-4,0 0.081,0.9212 -4e-4,0 -0.08,0.9178 -7e-4,0 -0.2392,0.8929 0,0 -0.3905,0.8362 0,0 -0.5294,0.7547 0,0 -0.6526,0.652 0,0 -0.7565,0.5279 0,0 -0.837,0.3933 0,0 -0.8918,0.2374 0,0 -0.9198,0.082 0,0 -0.9199,-0.082 0,0 -0.8918,-0.2374 0,0 -0.837,-0.3897 0,0 -0.7565,-0.5315 0,0 -0.653,-0.652 0,0 -0.5294,-0.7547 0,0 -0.3901,-0.8362 0,0 -0.2388,-0.8929 -4e-4,0 -0.08,-0.9213 4e-4,0 0.08,-0.9177 7e-4,0 0.2392,-0.8929 0,0 0.3904,-0.8362 0,0 0.5294,-0.7547 0,0 0.6531,-0.652 0,0 0.7564,-0.528 0,0 0.837,-0.3933 z m 306.64877,541.64413 1.3376,-0.35788 0,0 1.3798,-0.12047 0,0 1.3801,0.12047 0,0.004 1.338,0.35787 0,0 1.255,0.58465 0,0.004 1.1346,0.7937 0,0.004 0.9793,0.9815 0,0.004 0.7944,1.13386 0,0.004 0.5854,1.25433 0,0.007 0.3586,1.33583 3e-4,0.007 0.1205,1.37835 -3e-4,0.004 -0.1205,1.38189 0,0.004 -0.3582,1.33937 0,0.004 -0.5854,1.25433 0,0.004 -0.7948,1.13387 0,0.004 -0.9793,0.98149 0,0 -1.1346,0.79725 0,0 -1.2554,0.58464 0,0.003 -1.3376,0.35788 -0.01,0 -1.3801,0.12047 -0.01,0 -1.3798,-0.12047 0,-0.003 -1.3379,-0.35788 0,0 -1.2554,-0.58464 0,-0.004 -1.1346,-0.7937 0,-0.004 -0.9793,-0.9815 0,-0.004 -0.7944,-1.13387 0,-0.004 -0.5854,-1.25433 0,-0.007 -0.3586,-1.33583 -3e-4,-0.007 -0.1209,-1.37835 7e-4,-0.004 0.1205,-1.38189 0,-0.004 0.3583,-1.33937 0,-0.004 0.5853,-1.25433 0,-0.004 0.7944,-1.13386 0,-0.004 0.9794,-0.9815 0,0 1.1346,-0.79724 0,0 1.2553,-0.58465 z"
       inkscape:connector-curvature="0"
       style="fill:none;stroke:#000000;stroke-width:0.17716536mm;stroke-opacity:1" />
    <path
       id="path3416"
       d="m 485.93542,54.010604 10.59697,0 0.0354,0 0,52.972506 0,0.1771 -0.0354,0 -10.59697,0 0,543.85168 0,1.8177 0.43689,0 130.66497,0 0,10.5945 0,0.035 105.945,0 0.3543,0 0,-10.5945 0,-0.035 0.5078,0 151.8566,0 0,-60.0343 0,-0.2019 -10.5952,0 -0.035,0 0,-120.0721 0,-0.4004 10.5952,0 0.035,0 0,-120.07196 0,-0.4004 -10.5952,0 -0.035,0 0,-120.071 0,-0.4014 10.5952,0 0.035,0 0,-123.60272 0,-0.4132 -0.035,0 -10.5952,0 0,-52.972406 0,-0.1772 10.5952,0 0.035,0 0,-57.5245001 0,-0.1924 -0.5078,0 -151.8565,0 0,-10.5944999 0,-0.035 -105.9452,0 -0.3542,0 0,10.5944999 0,0.035 -0.4369,0 -130.66494,0 0,57.5245001 z m 47.60787,159.597826 0.95599,3.5681 0.003,0.012 1.56118,3.348 0.005,0.011 2.11889,3.026 0.007,0.01 2.61213,2.6121 0.008,0.01 3.02598,2.1186 0.0103,0.01 3.34808,1.5615 0.011,0.01 3.56846,0.956 0.0117,0 3.68008,0.3217 0.0124,0.001 3.68008,-0.3217 0.0124,-0.001 3.56811,-0.9563 0.0121,0 3.34771,-1.5612 0.0113,0 3.02598,-2.1185 0.01,-0.01 2.6121,-2.6122 0.01,-0.01 2.1189,-3.0259 0.01,-0.01 1.5612,-3.3481 0,-0.011 0.956,-3.5681 0,-0.012 0.3221,-3.6801 10e-4,-0.012 -0.3221,-3.6801 -10e-4,-0.012 -0.956,-3.5684 0,-0.012 -1.5612,-3.3481 0,-0.011 -2.1189,-3.026 -0.01,-0.01 -2.6121,-2.6121 -0.01,-0.01 -3.02597,-2.1189 -0.0103,-0.01 -3.34807,-1.5612 -0.011,-0.01 -3.56847,-0.956 -0.0117,0 -3.68008,-0.3221 -0.0124,-0.001 -3.68007,0.3221 -0.0124,10e-4 -3.56811,0.956 -0.0121,0 -3.34772,1.5612 -0.0113,0 -3.02598,2.1189 -0.0103,0.01 -2.61213,2.6121 -0.009,0.01 -2.1189,3.026 -0.007,0.01 -1.56118,3.3481 -0.005,0.011 -0.95598,3.5681 -0.003,0.012 -0.32209,3.6801 -10e-4,0.012 0.32209,3.68 z m 148.49569,-3.6925 0,3e-4 0,4e-4 0,0 4e-4,7e-4 0,0 0,4e-4 4e-4,3e-4 0,4e-4 3e-4,0 4e-4,3e-4 0,0 3e-4,4e-4 4e-4,0 3e-4,3e-4 0,0 4e-4,0 3e-4,0 4e-4,0 3e-4,0 4e-4,0 0,0 4e-4,0 3e-4,-3e-4 4e-4,0 0,0 3e-4,-4e-4 4e-4,0 3e-4,-3e-4 0,-4e-4 4e-4,-3e-4 0,0 0,-4e-4 3e-4,-4e-4 0,-3e-4 0,0 0,-7e-4 0,0 0,-4e-4 0,-3e-4 -3e-4,-4e-4 0,-3e-4 0,-4e-4 -4e-4,0 0,-3e-4 -3e-4,-4e-4 -4e-4,0 0,-4e-4 -3e-4,0 0,-3e-4 -7e-4,0 0,0 -4e-4,-4e-4 -4e-4,0 -3e-4,0 0,0 -7e-4,0 0,0 -4e-4,4e-4 -3e-4,0 -4e-4,3e-4 0,0 -3e-4,4e-4 -4e-4,0 -3e-4,4e-4 0,0 -4e-4,3e-4 0,4e-4 0,3e-4 0,0 -4e-4,7e-4 0,0 z m -143.74057,-69.8507 0.55772,2.0813 0.002,0.01 0.91027,1.9527 0.003,0.01 1.23591,1.7646 0.004,0.01 1.52362,1.5236 0.005,0.01 1.76492,1.2359 0.006,0 1.95272,0.9106 0.006,0 2.08098,0.5578 0.007,0 2.14654,0.1878 0.007,3e-4 2.14618,-0.1874 0.007,-7e-4 2.08134,-0.5577 0.007,0 1.95271,-0.9107 0.007,0 1.76493,-1.2355 0.006,0 1.52362,-1.5236 0.005,0 1.2359,-1.765 0.004,-0.01 0.91028,-1.9527 0.003,-0.01 0.55772,-2.081 0.002,-0.01 0.18779,-2.1461 7.1e-4,-0.01 -0.1878,-2.1462 -7e-4,-0.01 -0.55772,-2.0814 -0.002,-0.01 -0.91063,-1.9527 -0.003,-0.01 -1.23591,-1.7646 -0.004,-0.01 -1.52326,-1.5236 -0.005,-0.01 -1.76493,-1.2359 -0.006,0 -1.95271,-0.9106 -0.007,0 -2.08099,-0.5577 -0.007,0 -2.14618,-0.1878 -0.007,-7e-4 -2.14653,0.1878 -0.007,7e-4 -2.08099,0.5577 -0.007,0 -1.95271,0.9106 -0.006,0 -1.76492,1.2356 -0.006,0 -1.52327,1.5236 -0.005,0.01 -1.23555,1.7649 -0.004,0.01 -0.91063,1.9527 -0.003,0.01 -0.55772,2.081 -0.002,0.01 -0.18744,2.1462 -7.1e-4,0.01 0.1878,2.1465 z m 6.18413,501.22736 0.23882,0.8929 7.1e-4,0 0.39047,0.8398 10e-4,0 0.52973,0.7582 0.002,0 0.65303,0.652 0.002,0 0.7565,0.5315 0.003,0 0.83692,0.3933 0.003,0 0.89221,0.2374 0.003,0 0.91984,0.078 0.003,0 0.91984,-0.078 0.003,0 0.89185,-0.2409 0.003,0 0.83693,-0.3898 0.003,0 0.75615,-0.528 0.003,0 0.65267,-0.6519 0.002,0 0.52973,-0.7583 0.002,0 0.39047,-0.8362 10e-4,0 0.23917,-0.8894 7.1e-4,0 0.0804,-0.9212 3.6e-4,0 -0.0804,-0.9178 -3.6e-4,0 -0.23917,-0.8929 -7.1e-4,0 -0.39012,-0.8362 -10e-4,0 -0.52972,-0.7547 -0.002,0 -0.65268,-0.652 -0.002,0 -0.7565,-0.5279 -0.002,0 -0.83693,-0.3898 -0.003,0 -0.89185,-0.2409 -0.003,0 -0.92019,-0.082 -0.003,0 -0.91985,0.082 -0.003,0 -0.89185,0.2409 -0.003,0 -0.83657,0.3898 -0.003,0 -0.7565,0.5315 -0.003,0 -0.65303,0.6555 -0.002,0 -0.52972,0.7582 -0.002,0 -0.39012,0.8398 -10e-4,0 -0.23882,0.8929 -7.1e-4,0 -0.0804,0.9213 -3.5e-4,0 0.0804,0.9212 z m 212.59844,0 0.2388,0.8929 7e-4,0 0.3905,0.8398 0.001,0 0.5297,0.7582 0,0 0.653,0.652 0,0 0.7565,0.5315 0,0 0.837,0.3933 0,0 0.8922,0.2374 0,0 0.9198,0.078 0,0 0.9198,-0.078 0,0 0.8919,-0.2409 0,0 0.8369,-0.3898 0,0 0.7561,-0.528 0,0 0.6527,-0.6519 0,0 0.5297,-0.7583 0,0 0.3905,-0.8362 10e-4,0 0.2392,-0.8894 7e-4,0 0.08,-0.9212 3e-4,0 -0.08,-0.9178 -3e-4,0 -0.2392,-0.8929 -7e-4,0 -0.3901,-0.8362 -10e-4,0 -0.5297,-0.7547 0,0 -0.6527,-0.652 0,0 -0.7565,-0.5279 0,0 -0.8369,-0.3898 0,0 -0.8919,-0.2409 0,0 -0.9202,-0.082 0,0 -0.9198,0.082 0,0 -0.8919,0.2409 0,0 -0.8366,0.3898 0,0 -0.7565,0.5315 0,0 -0.653,0.6555 0,0 -0.5297,0.7582 0,0 -0.3901,0.8398 -10e-4,0 -0.2389,0.8929 -7e-4,0 -0.08,0.9213 -3e-4,0 0.08,0.9212 z m -162.9921,0 0.2388,0.8929 7e-4,0 0.3905,0.8398 10e-4,0 0.5297,0.7582 0,0 0.653,0.652 0,0 0.7565,0.5315 0,0 0.8369,0.3933 0,0 0.8922,0.2374 0,0 0.9199,0.078 0,0 0.9198,-0.078 0,0 0.8919,-0.2409 0,0 0.8369,-0.3898 0,0 0.7561,-0.528 0,0 0.6527,-0.6519 0,0 0.5297,-0.7583 0,0 0.3903,-0.8362 10e-4,0 0.239,-0.8894 8e-4,0 0.08,-0.9212 3e-4,0 -0.081,-0.9178 -3e-4,0 -0.239,-0.8929 -8e-4,0 -0.3902,-0.8362 -10e-4,0 -0.5297,-0.7547 0,0 -0.6527,-0.652 0,0 -0.7565,-0.5279 0,0 -0.8369,-0.3898 0,0 -0.8918,-0.2409 0,0 -0.9202,-0.082 0,0 -0.9199,0.082 0,0 -0.8918,0.2409 0,0 -0.8366,0.3898 0,0 -0.7565,0.5315 0,0 -0.653,0.6555 0,0 -0.5298,0.7582 0,0 -0.3901,0.8398 -0.001,0 -0.2388,0.8929 -7e-4,0 -0.08,0.9213 -4e-4,0 0.08,0.9212 z m 212.5984,0 0.2388,0.8929 7e-4,0 0.3905,0.8398 10e-4,0 0.5297,0.7582 0,0 0.653,0.652 0,0 0.7565,0.5315 0,0 0.8369,0.3933 0,0 0.8919,0.2374 0,0 0.9198,0.078 0,0 0.9199,-0.078 0,0 0.8918,-0.2409 0,0 0.837,-0.3898 0,0 0.7561,-0.528 0,0 0.6527,-0.6519 0,0 0.5297,-0.7583 0,0 0.3901,-0.8362 10e-4,0 0.2392,-0.8894 7e-4,0 0.08,-0.9212 4e-4,0 -0.08,-0.9178 -4e-4,0 -0.2392,-0.8929 -7e-4,0 -0.3901,-0.8362 -10e-4,0 -0.5297,-0.7547 0,0 -0.6527,-0.652 0,0 -0.7565,-0.5279 0,0 -0.8369,-0.3898 0,0 -0.8919,-0.2409 0,0 -0.9202,-0.082 0,0 -0.9198,0.082 0,0 -0.8919,0.2409 0,0 -0.8369,0.3898 0,0 -0.7565,0.5315 0,0 -0.653,0.6555 0,0 -0.5298,0.7582 0,0 -0.3901,0.8398 -10e-4,0 -0.2388,0.8929 -7e-4,0 -0.08,0.9213 -4e-4,0 0.08,0.9212 z m -129.2138,-7.6677 -10e-4,0 -0.3186,1.1905 0,0 -0.5205,1.1162 0,0 -0.7061,1.0063 0,0 -0.8708,0.8716 0,0 -1.0085,0.7051 0,0 -1.1158,0.5209 0,0 -1.1892,0.3154 0,0 -1.2265,0.1063 0,0 -1.2265,-0.1099 0,0 -1.1892,-0.3189 0,0 -1.1158,-0.5209 0,0 -1.0086,-0.7051 0,0 -0.8705,-0.8716 0,0 -0.7062,-1.0063 0,0 -0.5203,-1.1162 -10e-4,0 -0.3187,-1.1905 -3e-4,0 -0.1073,-1.226 4e-4,0 0.1072,-1.226 0.001,-0.01 0.3187,-1.187 0,0 0.5203,-1.1161 0,0 0.7062,-1.0099 0,0 0.8706,-0.8681 0,0 1.0085,-0.7051 0,0 1.1158,-0.5209 0,0 1.1892,-0.3189 0,0 1.2265,-0.1063 0,0 1.2264,0.1063 0,0 1.1892,0.3154 0,0 1.1158,0.5209 0,0 1.0085,0.7086 0,0 0.8706,0.8681 0,0 0.7062,1.0099 0,0 0.5205,1.1161 10e-4,0 0.3186,1.1906 3e-4,0 0.1074,1.226 -4e-4,0 z m 172.7731,-161.2559 -10e-4,0 -0.3189,1.1905 -10e-4,0 -0.5206,1.1126 0,0 -0.7061,1.0099 0,0 -0.8706,0.8716 0,0 -1.0085,0.7087 0,0 -1.1158,0.5208 0,0 -1.1891,0.3189 0,0 -1.2263,0.1063 0,0 -1.2263,-0.1063 0,0 -1.1892,-0.3189 0,0 -1.1158,-0.5173 0,0 -1.0084,-0.7051 0,0 -0.8706,-0.8716 0,0 -0.7062,-1.0099 0,0 -0.5201,-1.1126 -10e-4,-0.01 -0.3189,-1.187 -4e-4,0 -0.107,-1.2295 4e-4,0 0.107,-1.226 10e-4,0 0.3189,-1.1906 0,0 0.5201,-1.1161 0,0 0.7062,-1.0098 0,0 0.8706,-0.8717 0,0 1.0088,-0.7087 0,0 1.1158,-0.5208 0,0 1.1894,-0.3189 0,0 1.2267,-0.1099 0,0 1.2267,0.1063 0,0 1.1892,0.3189 0,0 1.1158,0.5173 0,0 1.0084,0.7052 0,0 0.8702,0.8716 0,0 0.7062,1.0063 0,0.01 0.5202,1.1126 10e-4,0.01 0.3188,1.187 4e-4,0 0.1074,1.226 -4e-4,0.01 z m -171.9007,-453.386086 -10e-4,0 -0.3586,1.3376 0,0 -0.5854,1.2554 0,0 -0.7944,1.1346 0,0 -0.9794,0.9793 0,0 -1.1346,0.7945 0,0 -1.2553,0.5853 0,0 -1.3378,0.3586 0,3e-4 -1.3798,0.1209 -0.01,-4e-4 -1.3798,-0.1208 0,0 -1.3379,-0.3586 0,0 -1.2552,-0.5853 0,0 -1.1346,-0.7945 0,0 -0.9794,-0.9793 0,0 -0.7944,-1.1346 0,0 -0.5854,-1.2554 -10e-4,0 -0.3584,-1.3379 -4e-4,0 -0.1208,-1.3798 4e-4,0 0.1208,-1.3798 10e-4,0 0.3584,-1.3379 0,0 0.5854,-1.2554 0,0 0.7944,-1.1346 0,0 0.9794,-0.9793 0,0 1.1346,-0.7945 0,0 1.2553,-0.5853 0.01,0 1.3378,-0.3582001 0,-4e-4 1.3798,-0.1208 0,3e-4 1.3798,0.1209 0,0 1.3379,0.3585001 0,0 1.2553,0.5854 0,0 1.1347,0.7944 0,0 0.9794,0.9794 0,0 0.7944,1.1345 0,0 0.5853,1.2551 0,0 0.3586,1.3379 3e-4,0 0.1209,1.3798 -4e-4,0 z m -164.96932,596.982086 -0.001,0 -0.3189,1.1906 -0.002,0 -0.52016,1.1161 -0.002,0 -0.70618,1.0099 -0.003,0 -0.87059,0.8716 -0.003,0 -1.00878,0.7051 -0.004,0 -1.11578,0.5174 -0.004,0 -1.18949,0.3189 -0.004,0 -1.2267,0.1063 -0.004,0 -1.22669,-0.1063 -0.004,0 -1.18913,-0.3189 -0.004,0 -1.11579,-0.5209 -0.003,0 -1.00843,-0.7051 -0.003,0 -0.87059,-0.8681 -0.002,0 -0.70618,-1.0099 -0.002,0 -0.52015,-1.1161 -0.001,0 -0.3189,-1.1906 -3.6e-4,0 -0.10736,-1.226 3.6e-4,0 0.10736,-1.2259 0.001,0 0.3189,-1.1906 10e-4,0 0.52051,-1.1161 0.003,0 0.70582,-1.0099 0.003,0 0.87059,-0.8716 0.003,0 1.00843,-0.7051 0.004,0 1.11579,-0.5173 0.004,0 1.18913,-0.3189 0.004,0 1.22634,-0.1063 0.004,0 1.22634,0.1063 0.004,0 1.18913,0.3189 0.003,0 1.11579,0.5208 0.004,0 1.00842,0.7051 0.003,0 0.87059,0.8682 0.002,0 0.70619,1.0098 0.002,0 0.52015,1.1161 10e-4,0 0.3189,1.1906 3.5e-4,0 0.10701,1.226 -3.5e-4,0 z m 336.87002,-384.54156 -10e-4,0 -0.3189,1.1891 -10e-4,0 -0.5206,1.1158 0,0 -0.7061,1.0084 0,0 -0.8706,0.8706 0,0 -1.0085,0.7062 0,0 -1.1158,0.5205 0,10e-4 -1.1891,0.3186 0,3e-4 -1.2263,0.1074 0,-4e-4 -1.2263,-0.1073 0,-0.001 -1.1892,-0.3186 0,0 -1.1158,-0.5205 0,0 -1.0084,-0.7062 0,0 -0.8706,-0.8706 0,0 -0.7062,-1.0084 0,0 -0.5201,-1.1158 -10e-4,0 -0.3189,-1.1891 -4e-4,0 -0.107,-1.2264 4e-4,0 0.107,-1.2263 10e-4,0 0.3189,-1.1891 0,0 0.5201,-1.1158 0,0 0.7062,-1.0084 0,0 0.8706,-0.8706 0,0 1.0088,-0.7062 0,0 1.1158,-0.5202 0,0 1.1894,-0.3185 0,-7e-4 1.2267,-0.107 0,3e-4 1.2267,0.1074 0,0.001 1.1892,0.3185 0,0 1.1158,0.5202 0,0 1.0084,0.7062 0,0 0.8702,0.8706 0,0 0.7062,1.0084 0,0 0.5202,1.1158 10e-4,0 0.3188,1.1891 4e-4,0 0.1074,1.2267 -4e-4,0 z M 525.71967,81.080404 l -10e-4,0.01 -0.35858,1.338005 -0.002,0 -0.58536,1.2554 -0.003,0 -0.79441,1.1345 -0.003,0 -0.97937,0.9794 -0.004,0 -1.13456,0.7944 -0.004,0 -1.2554,0.5854 -0.004,0.001 -1.33795,0.3582 -0.005,4e-4 -1.37976,0.1208 -0.005,-4e-4 -1.37977,-0.1208 -0.005,-0.001 -1.3376,-0.3586 -0.004,0 -1.25539,-0.5853 -0.004,0 -1.13457,-0.7944 -0.003,0 -0.97937,-0.9794 -0.003,0 -0.79476,-1.1346 -0.002,0 -0.58536,-1.255 -10e-4,0 -0.35858,-1.338005 -3.5e-4,0 -0.12083,-1.3797 3.6e-4,-0.01 0.12082,-1.3798 0.001,-0.01 0.35858,-1.3376 0.002,0 0.58536,-1.2554 0.003,0 0.79441,-1.1345 0.003,0 0.97937,-0.9794 0.004,0 1.13456,-0.7944 0.004,0 1.2554,-0.5854 0.004,-0.001 1.33795,-0.3585 0.005,-4e-4 1.37976,-0.1208 0.005,3e-4 1.37977,0.1209 0.005,0 1.3376,0.3585 0.004,0 1.25539,0.5854 0.004,0 1.13457,0.7944 0.003,0 0.97937,0.9794 0.003,0 0.79441,1.1346 0.002,0 0.58535,1.2554 10e-4,0 0.35858,1.3379 3.6e-4,0.01 0.12082,1.3798 -3.5e-4,0.01 z m -12.34311,286.853126 -0.001,0 -0.3189,1.1906 -0.002,0 -0.52016,1.1161 -0.002,0 -0.70618,1.0099 -0.003,0 -0.87059,0.8716 -0.003,0 -1.00878,0.7052 -0.004,0 -1.11578,0.5173 -0.004,0 -1.18949,0.3189 -0.004,0 -1.2267,0.1063 -0.004,0 -1.22669,-0.1063 -0.004,0 -1.18913,-0.3189 -0.004,0 -1.11579,-0.5209 -0.003,0 -1.00843,-0.7051 -0.003,0 -0.87059,-0.8681 -0.002,0 -0.70618,-1.0099 -0.002,0 -0.52015,-1.1161 -0.001,0 -0.3189,-1.1906 -3.6e-4,0 -0.10736,-1.2259 3.6e-4,0 0.10736,-1.226 0.001,0 0.3189,-1.1906 10e-4,0 0.52051,-1.1161 0.003,0 0.70582,-1.0099 0.003,0 0.87059,-0.8716 0.003,0 1.00843,-0.7051 0.004,0 1.11579,-0.5173 0.004,0 1.18913,-0.3189 0.004,0 1.22634,-0.1063 0.004,0 1.22634,0.1063 0.004,0 1.18913,0.3189 0.003,0 1.11579,0.5208 0.004,0 1.00842,0.7052 0.003,0 0.87059,0.8681 0.002,0 0.70619,1.0098 0.002,0 0.52015,1.1162 10e-4,0 0.3189,1.1905 3.5e-4,0 0.10701,1.226 -3.5e-4,0 z m 214.64502,-39.5255 0,-0.3544 0,-105.9448 -0.2714,0 -81.2246,0 0,0.3543 0,105.9449 0.2716,0 z"
       inkscape:connector-curvature="0"
       style="fill:none;stroke:#000000;stroke-width:0.17716535mm;stroke-opacity:1" />
    <path
       id="path3431"
       d="m 389.91146,117.2812 0,0 1.255,0.5846 0,0 1.1346,0.7937 0,0 0.9794,0.9815 0,0 0.7944,1.1339 0,0 0.5853,1.2543 10e-4,0.01 0.3586,1.3358 4e-4,0.01 0.1204,1.3784 -3e-4,0 -0.1205,1.3819 0,0 -0.3582,1.3393 0,0 -0.5854,1.2544 0,0 -0.7947,1.1338 0,0 -0.9794,0.9815 0,0 -1.1346,0.7973 0,0 -1.2554,0.5846 0,0 -1.3375,0.3579 -0.01,0 -1.3802,0.1205 -0.01,0 -1.3797,-0.1205 0,0 -1.338,-0.3579 0,0 -1.2554,-0.5846 0,0 -1.1345,-0.7937 0,0 -0.9794,-0.9815 0,0 -0.7944,-1.1339 0,0 -0.5854,-1.2543 -10e-4,-0.01 -0.3585,-1.3358 -4e-4,-0.01 -0.1208,-1.3784 7e-4,0 0.1205,-1.3819 0.001,0 0.3582,-1.3393 0,0 0.5853,-1.2544 0,0 0.7945,-1.1338 0,0 0.9793,-0.9815 0,0 1.1346,-0.7973 0,0 1.2554,-0.5846 0.01,0 1.3376,-0.3579 0.01,0 1.3798,-0.1204 0.01,0 1.3801,0.1204 0,0 z m -8.8342,473.24413 0,0 -0.7944,-1.1339 0,0 -0.5853,-1.2543 -0.001,-0.01 -0.3586,-1.3359 -4e-4,-0.01 -0.1208,-1.3783 7e-4,0 0.1205,-1.3819 10e-4,0 0.3582,-1.3394 0,0 0.5854,-1.2543 0,0 0.7944,-1.1339 0,0 0.9793,-0.9814 0,0 1.1346,-0.7973 0,0 1.2554,-0.5846 0.01,0 1.3376,-0.3579 0.01,0 1.3798,-0.1205 0.01,0 1.3801,0.1205 0,0 1.3379,0.3579 0,0 1.2551,0.5846 0,0 1.1346,0.7937 0,0 0.9793,0.9815 0,0 0.7944,1.1339 0,0 0.5854,1.2543 10e-4,0.01 0.3586,1.3358 3e-4,0.01 0.1205,1.3784 -4e-4,0 -0.1204,1.3819 -10e-4,0 -0.3583,1.3393 0,0 -0.5853,1.2544 0,0 -0.7948,1.1338 0,0 -0.9793,0.9815 0,0 -1.1346,0.7973 0,0 -1.2554,0.5846 -0.01,0 -1.3376,0.3579 0,0 -1.3801,0.1205 0,0 -1.3798,-0.1205 0,0 -1.3379,-0.3579 0,0 -1.2554,-0.5846 0,0 -1.1346,-0.7937 0,0 z m -141.7598,-561.387433 1.2553,-0.5847 0,0 1.1346,-0.7937 0,0 0.9794,-0.978 0,0 0.7944,-1.1338 0,0 0.5853,-1.2579 0,0 0.3585,-1.3358 0.001,-0.01 0.1207,-1.3784 4e-4,0 -0.1207,-1.3818 -4e-4,0 -0.3585,-1.3394 -0.001,0 -0.5853,-1.2543 0,0 -0.7944,-1.1339 0,-0.01 -0.9795,-0.978 0,0 -1.1345,-0.7937 0,0 -1.2553,-0.5846 0,0 -1.3378,-0.3579 -0.01,0 -1.3798,-0.1204 -0.01,0 -1.3798,0.1204 0,0 -1.3379,0.3579 0,0 -1.2553,0.5882 0,0 -1.1346,0.7937 0,0 -0.9794,0.9815 0,0 -0.7944,1.1374 0,0 -0.5853,1.2543 0,0 -0.3586,1.3394 -0.001,0 -0.1208,1.3783 -4e-4,0.01 0.1208,1.3784 4e-4,0 0.3582,1.3394 0.001,0 0.5854,1.2578 0,0 0.7946,1.1339 0,0 0.9793,0.9779 0,0 1.1346,0.7973 0,0 1.2553,0.5882 0,0 1.3378,0.3578 0,0 1.3798,0.1205 0,0 1.3797,-0.1205 0.01,0 1.3379,-0.3614 z m 2.2985,684.201933 -3e-4,0 -0.3187,-1.1905 0,0 -0.5203,-1.1162 0,0 -0.7061,-1.0063 0,0 -0.8706,-0.8716 0,0 -1.0085,-0.7051 0,0 -1.1158,-0.5209 0,0 -1.1892,-0.3189 0,0 -1.2265,-0.1099 0,0 -1.2264,0.1063 0,0 -1.1893,0.3153 0,0 -1.1158,0.5209 0,0 -1.0085,0.7051 0,0 -0.8707,0.8717 0,0 -0.7062,1.0062 0,0 -0.5205,1.1162 0,0 -0.3186,1.1905 -0.001,0 -0.1073,1.226 -4e-4,0 0.1074,1.226 3e-4,0 0.3186,1.1906 0,0 0.5205,1.1161 0,0 0.7062,1.0098 0,0 0.8706,0.8682 0,0 1.0085,0.7086 0,0 1.1158,0.5209 0,0 1.1892,0.3189 0,0 1.2265,0.1063 0,0 1.2265,-0.1063 0,0 1.1892,-0.3189 0,0 1.1158,-0.5209 0,0 1.0085,-0.7051 0,0 0.8705,-0.8681 0,0 0.7062,-1.0099 0,0 0.5204,-1.1161 0,0 0.3186,-1.187 10e-4,-0.01 0.1073,-1.226 3e-4,0 z m -59.8214,-713.04093229 105.945,0 0.3544,0 0,-10.59449971 0,-0.035 130.6646,0 0.4373,0 0,0.1984 0,59.509899 -10.5942,0 -0.035,0 0,176.573603 0,0.5917 10.5942,0 0.035,0 0,1.063 0,317.83473 -10.5942,0 -0.035,0 0,176.5736 0,0.5917 10.5942,0 0.035,0 0,0.074 0,22.9252 -130.6648,0 -0.4371,0 0,-10.5945 0,-0.035 -105.9447,0 -0.3546,0 0,10.5945 0,0.035 -151.856309,0 -0.5081,0 0,-22.9252 0,-0.074 10.5966,0 0.035,0 0,-176.5771 0,-0.5882 -10.5966,0 -0.035,0 0,-1.063 0,-317.83473 10.5966,0 0.035,0 0,-176.577103 0,-0.5882 -10.5966,0 -0.035,0 0,-59.509899 0,-0.1984 151.856609,0 0.5078,0 0,10.59449971 z"
       inkscape:connector-curvature="0"
       style="fill:none;stroke:#000000;stroke-width:0.17716536mm;stroke-opacity:1" />
    <path
       id="path3461"
       d="m 376.55132,900.37372 0.1074,1.2264 -4e-4,0 -0.1073,1.2263 0,0 -0.3189,1.1895 0,0 -0.5206,1.1158 0,0 -0.7058,1.0084 0,0 -0.8706,0.8706 0,0 -1.0084,0.7062 0,0 -1.1158,0.5201 0,10e-4 -1.1891,0.3186 0,3e-4 -1.2264,0.1074 0,-4e-4 -1.2263,-0.1073 0,-10e-4 -1.1891,-0.3186 0,0 -1.1158,-0.5201 0,0 -1.0084,-0.7062 0,0 -0.8706,-0.8706 0,0 -0.7062,-1.0084 0,0 -0.5202,-1.1158 0,0 -0.3189,-1.1892 -3e-4,0 -0.107,-1.2266 3e-4,0 0.107,-1.2267 0,0 0.3189,-1.1892 0,0 0.5202,-1.1158 0,0 0.7062,-1.0087 0,0 0.8706,-0.8706 0,0 1.0087,-0.7062 0,0 1.1158,-0.5205 0,0 1.1895,-0.3186 0,-3e-4 1.2267,-0.1074 0,4e-4 1.2267,0.1073 0,0 1.1892,0.3186 0,0 1.1157,0.5205 0,0 1.0085,0.7062 0,0 0.8706,0.8706 0,0 0.7061,1.0084 0,0 0.5202,1.1158 0,0 0.3185,1.1891 z m -164.6297,-58.40358 0.7062,1.0084 0,0 0.8706,0.8706 0,0 1.0085,0.7062 0,0 1.1157,0.5205 0,0 1.1893,0.3186 0,0 1.2264,0.1073 0,4e-4 1.2265,-0.1074 0,-3e-4 1.1892,-0.3186 0,0 1.1158,-0.5205 0,0 1.0085,-0.7062 0,0 0.8705,-0.8706 0,0 0.7062,-1.0087 0,0 0.5203,-1.1158 0,0 0.3187,-1.1892 0,0 0.1073,-1.2267 4e-4,0 -0.1074,-1.2267 -3e-4,0 -0.3187,-1.1891 0,0 -0.5203,-1.1158 0,0 -0.7062,-1.0084 0,0 -0.8705,-0.8706 0,0 -1.0085,-0.7062 0,0 -1.1158,-0.5201 0,0 -1.1893,-0.3186 0,0 -1.2264,-0.1073 0,-4e-4 -1.2265,0.1074 0,3e-4 -1.1892,0.3186 0,0 -1.1158,0.5201 0,0 -1.0086,0.7062 0,0 -0.8705,0.8706 0,0 -0.7062,1.0084 0,0 -0.5203,1.1158 0,0 -0.3185,1.1895 0,0 -0.1074,1.2263 -4e-4,0 0.1074,1.2264 4e-4,0 0.3185,1.1891 0,0 0.5203,1.1158 z m 0.7115,114.21598 0,0 -0.7062,1.0088 0,0 -0.5203,1.1158 0,0 -0.3185,1.1891 0,0 -0.1074,1.2267 -4e-4,0 0.1074,1.2267 4e-4,0 0.3185,1.1891 0,0 0.5203,1.1158 0,0 0.7062,1.0085 0,0 0.8706,0.8705 0,0 1.0085,0.7062 0,0 1.1158,0.5202 0,0 1.1892,0.3185 0,0.001 1.2265,0.1074 0,3e-4 1.2264,-0.1073 0,-4e-4 1.1892,-0.3185 0,-10e-4 1.1158,-0.5202 0,0 1.0085,-0.7062 0,0 0.8706,-0.8706 0,0 0.7062,-1.0084 0,0 0.5203,-1.1158 0,0 0.3186,-1.1894 0,0 0.1073,-1.2264 4e-4,0 -0.1073,-1.2263 -4e-4,0 -0.3186,-1.1892 0,0 -0.5203,-1.1157 0,0 -0.7062,-1.0085 0,0 -0.8706,-0.8702 0,0 -1.0085,-0.7062 0,0 -1.1158,-0.5205 0,0 -1.1892,-0.3185 0,-0.001 -1.2265,-0.1074 0,-4e-4 -1.2265,0.1074 0,4e-4 -1.1892,0.3185 0,0 -1.1158,0.5205 0,0 -1.0085,0.7062 0,0 z m 56.9289,25.0023 0,0.001 130.6646,0 0.4373,0 0,-51.952 0,-0.1736 -0.036,0 -10.5966,0 0,-52.9724 0,-0.1772 10.5966,0 0.036,0 0,-57.52448 0,-0.1924 -0.4373,0 -130.6646,0 0,-10.5945 0,-0.035 -105.9447,0 -0.3547,0 0,10.5945 0,0.035 -141.261695,0 -0.4727,0 0,57.52448 0,0.1924 7e-4,0 0,52.9724 0,0.1772 -7e-4,0 0,51.952 0,0.1736 0.4727,0 141.261695,0 0,-0.001 0.3547,0 z"
       inkscape:connector-curvature="0"
       style="fill:none;stroke:#000000;stroke-width:0.17716536mm;stroke-opacity:1" />
    <path
       id="path3476"
       d="m 1232.6116,949.55333 0,0.035 0,10.5945 133.0761,0 0.4429,0 0,-0.035 0,-10.5945 59.113,0 0.1984,0 0,-0.2197 0,-65.6468 0.035,0 10.5945,0 0,-70.6288 0,-0.2374 -0.035,0 -10.5945,0 0,-69.5693 0,-0.2338 -477.77259,0 -1.598,0 0,0.2338 0,69.5693 -0.035,0 -10.5945,0 0,70.6288 0,0.2374 0.035,0 10.5945,0 0,65.6468 0,0.2197 0.1878,0 56.03739,0 0,0.035 0,10.5945 133.0725,0 0.4465,0 0,-0.035 0,-10.5945 96.4736,0 z"
       inkscape:connector-curvature="0"
       style="fill:none;stroke:#000000;stroke-width:0.17716535mm;stroke-opacity:1" />
    <path
       id="path3491"
       d="m 427.39626,839.09522 -10.5945,0 0,70.6288 0,0.2374 0.035,0 10.5945,0 0,65.6468 0,0.2197 59.113,0 0.1984,0 0,0.035 0,10.5945 133.0724,0 0.4465,0 0,-0.035 0,-10.5945 96.4735,0 0.3225,0 0,0.035 0,10.5945 133.0725,0 0.4464,0 0,-0.035 0,-10.5945 56.0374,0 0.1878,0 0,-65.6469 0,-0.2196 0.035,0 10.5945,0 0,-70.6288 0,-0.2374 -0.035,0 -10.5945,0 0,-69.5693 0,-0.2338 -477.7724,0 -1.598,0 0,69.5693 0,0.2338 z"
       inkscape:connector-curvature="0"
       style="fill:none;stroke:#000000;stroke-width:0.17716535mm;stroke-opacity:1" />
    <path
       id="path3521"
       d="m 1596.7545,28.302195 0.3905,0.8398 0,0 0.5297,0.7582 0,0 0.653,0.652 0,0 0.7565,0.5315 0,0 0.837,0.3933 0,0 0.8922,0.2374 0,0 0.9198,0.078 0,0 0.9198,-0.078 0,0 0.8919,-0.241 0,0 0.8369,-0.3897 0,0 0.7562,-0.528 0,0 0.6526,-0.6519 0,0 0.5298,-0.7583 0,0 0.3901,-0.8362 10e-4,0 0.2391,-0.8894 8e-4,0 0.08,-0.9213 3e-4,0 -0.08,-0.9177 -3e-4,0 -0.2392,-0.8929 -7e-4,0 -0.3901,-0.836198 -10e-4,0 -0.5298,-0.7547 0,0 -0.6526,-0.652 0,0 -0.7565,-0.528 0,0 -0.837,-0.3897 0,0 -0.8918,-0.241 0,0 -0.9202,-0.082 0,0 -0.9199,0.082 0,0 -0.8918,0.241 0,0 -0.8366,0.3897 0,0 -0.7565,0.5315 0,0 -0.653,0.6556 0,0 -0.5297,0.7582 0,0 -0.3902,0.839798 -10e-4,0 -0.2388,0.8929 -7e-4,0 -0.08,0.9213 -3e-4,0 0.08,0.9212 3e-4,0 0.2388,0.8929 z m -157.0744,3.4193 0,0 -0.9199,0.078 0,0 -0.9198,-0.078 0,0 -0.8922,-0.2374 0,0 -0.8369,-0.3933 0,0 -0.7565,-0.5315 0,0 -0.6531,-0.652 0,0 -0.5297,-0.7583 -10e-4,0 -0.3905,-0.8397 -7e-4,0 -0.2388,-0.8929 -3e-4,0 -0.08,-0.9213 3e-4,0 0.08,-0.9213 7e-4,0 0.2388,-0.8929 10e-4,0 0.3902,-0.839698 0,0 0.5297,-0.7583 0,0 0.653,-0.6555 0,0 0.7565,-0.5315 0,0 0.8366,-0.3898 0,0 0.8918,-0.2409 0,0 0.9199,-0.082 0,0 0.9202,0.082 0,0 0.8918,0.2409 0,0 0.837,0.3898 0,0 0.7565,0.5279 0,0 0.6526,0.652 0,0 0.5298,0.7547 10e-4,0 0.3901,0.836298 8e-4,0 0.239,0.8929 3e-4,0 0.081,0.9177 -3e-4,0 -0.081,0.9212 -8e-4,0 -0.239,0.8894 -10e-4,0 -0.3903,0.8362 0,0 -0.5297,0.7583 0,0 -0.6527,0.652 0,0 -0.7561,0.5279 0,0 -0.8369,0.3898 0,0 z m -48.7088,-10.229498 0,0 -0.8919,-0.241 0,0 -0.9202,-0.082 0,0 -0.9198,0.082 0,0 -0.8919,0.241 0,0 -0.8365,0.3897 0,0 -0.7565,0.5315 0,0 -0.6531,0.6555 0,0 -0.5297,0.7583 0,0 -0.3901,0.839798 0,0 -0.2388,0.8929 -7e-4,0 -0.081,0.9212 -3e-4,0 0.08,0.9213 4e-4,0 0.2388,0.8929 7e-4,0 0.3905,0.8398 0,0 0.5297,0.7582 0,0 0.653,0.652 0,0 0.7565,0.5315 0,0 0.837,0.3933 0,0 0.8922,0.2374 0,0 0.9198,0.078 0,0 0.9198,-0.078 0,0 0.8919,-0.2409 0,0 0.8369,-0.3898 0,0 0.7562,-0.528 0,0 0.6526,-0.6519 0,0 0.5298,-0.7583 0,0 0.3901,-0.8362 0,0 0.2392,-0.8894 7e-4,0 0.08,-0.9212 4e-4,0 -0.081,-0.9178 -3e-4,0 -0.2392,-0.8929 -7e-4,0 -0.3901,-0.836198 0,0 -0.5298,-0.7547 0,0 -0.6526,-0.652 0,0 -0.7565,-0.5279 0,0 z m 265.6987,4.995998 -0.08,0.9213 -8e-4,0 -0.2391,0.8893 -0,0 -0.3901,0.8363 0,0 -0.5298,0.7582 0,0 -0.6527,0.652 0,0 -0.7561,0.528 0,0 -0.8369,0.3897 0,0 -0.8919,0.241 0,0 -0.9198,0.078 0,0 -0.9199,-0.078 0,0 -0.8918,-0.2374 0,0 -0.837,-0.3933 0,0 -0.7564,-0.5315 0,0 -0.6531,-0.652 0,0 -0.5297,-0.7583 0,0 -0.3905,-0.8397 -7e-4,0 -0.2388,-0.893 -4e-4,0 -0.08,-0.9212 4e-4,0 0.08,-0.9213 7e-4,0 0.2388,-0.8929 10e-4,0 0.3901,-0.839798 0,0 0.5298,-0.7582 0,0 0.653,-0.6555 0,0 0.7565,-0.5315 0,0 0.8369,-0.3898 0,0 0.8919,-0.2409 0,0 0.9198,-0.082 0,0 0.9202,0.082 0,0 0.8919,0.2409 0,0 0.8369,0.3898 0,0 0.7565,0.5279 0,0 0.6526,0.652 0,0 0.5298,0.7547 0,0 0.3901,0.836198 7e-4,0 0.2392,0.893 3e-4,0 0.08,0.9177 z m -331.3006,183.380305 0,-65.6468 0.036,0 10.5963,0 0,-0.2374 0,-70.628805 -0.035,0 -10.5967,0 0,-0.2338 0,-69.5692978 1.2997,0 388.4658,0 0,0.2338 0,69.5692978 -0.035,0 -10.5938,0 0,0.2374 0,70.628805 0.035,0 10.5938,0 0,0.2196 0,65.6469 -0.4252,0 -127.1334,0 0,10.5945 0,0.035 -133.0735,0 -0.4452,0 0,-10.5945 0,-0.035 -128.2591,0 -0.4291,0 z"
       inkscape:connector-curvature="0"
       style="fill:none;stroke:#000000;stroke-width:0.17716535mm;stroke-opacity:1" />
    <path
       id="path3536"
       d="m 1879.2203,105.17781 -0.1183,0 0,0.035 0,10.5945 35.3158,0 0.118,0 0,-0.035 0,-10.5945 z m -141.8506,-106.2991973 0,69.5693003 0,0.2338 10.5938,0 0.035,0 0,70.628797 0,0.2374 -10.5937,0 -0.035,0 0,65.6468 0,0.2197 0.4256,0 127.1331,0 0,0.035 0,10.5945 0.4454,0 133.0733,0 0,-0.035 0,-10.5945 0.4293,0 128.2589,0 0,-65.6468 0,-0.2197 -10.5966,0 -0.035,0 0,-70.628797 0,-0.2374 10.5962,0 0.036,0 0,-69.56920034 0,-0.23389996 -388.4651,0 z m 212.5993,106.2991973 0.1182,0 35.3156,0 0,10.5945 0,0.035 -0.1182,0 -35.3156,0 0,-10.5945 z"
       inkscape:connector-curvature="0"
       style="fill:none;stroke:#000000;stroke-width:0.17716535mm;stroke-opacity:1" />
    <path
       id="path3551"
       d="m 657.16322,257.31257 0,0.1184 0,35.3148 -0.035,0 -10.5945,0 0,35.3157 0,0.1181 0.1878,0 56.5051,0 4.291,-0.3755 0.014,0 4.1634,-1.1153 0.014,0 3.9047,-1.821 0.014,-0.01 3.5291,-2.4716 0.011,-0.01 3.0472,-3.047 0.011,-0.01 2.4733,-3.5298 0.01,-0.012 1.8212,-3.9053 0.01,-0.013 1.1126,-4.1622 0,-0.014 0.3756,-4.2927 0,-0.014 0,-0.189 0,-56.5055 -0.3756,-4.2927 0,-0.014 -1.1126,-4.1623 0,-0.014 -1.8212,-3.9055 -0.01,-0.013 -2.4733,-3.5298 -0.01,-0.012 -3.0472,-3.0469 -0.011,-0.01 -3.5292,-2.4714 -0.011,-0.01 -3.9047,-1.8209 -0.014,-0.01 -4.1634,-1.1155 -0.014,0 -4.2909,-0.3756 -0.014,0 -0.1913,0 -56.5016,0 0,35.3158 0,0.118 0.035,0 z m 35.4225,35.4323 -3.065,-0.2683 -0.011,0 -2.9728,-0.7966 -0.011,0 -2.7886,-1.3008 -0.01,-0.01 -2.5228,-1.7654 -0.01,-0.01 -2.1756,-2.1764 -0.01,-0.01 -1.7646,-2.5213 0,-0.01 -1.3003,-2.7895 0,-0.01 -0.7973,-2.9729 0,-0.01 -0.2693,-3.0664 0,-0.01 0.2693,-3.066 0,-0.01 0.7973,-2.9732 0,-0.01 1.3003,-2.7897 0.01,-0.01 1.7646,-2.521 0.01,-0.01 2.1756,-2.1763 0.011,-0.01 2.5193,-1.7653 0.011,0 2.7885,-1.3008 0.011,0 2.9728,-0.7965 0.011,0 3.065,-0.2682 0.011,0 3.065,0.2682 0.011,0 2.9728,0.7969 0.011,0 2.7886,1.3007 0.01,0.01 2.5228,1.7653 0.01,0.01 2.1756,2.1763 0.01,0.01 1.7646,2.5211 0,0.01 1.3039,2.7893 0,0.01 0.7972,2.9732 0,0.01 0.2693,3.0661 0,0.01 -0.2693,3.0663 0,0.01 -0.7937,2.973 -0.01,0.01 -1.3004,2.7895 0,0.01 -1.7681,2.5213 -0.01,0.01 -2.1756,2.1764 -0.01,0.01 -2.5228,1.7654 -0.011,0 -2.7886,1.3007 -0.011,0 -2.9729,0.7966 -0.011,9e-4 -3.065,0.2683 z"
       inkscape:connector-curvature="0"
       style="fill:none;stroke:#000000;stroke-width:0.17716536mm;stroke-opacity:1" />
    <path
       id="path3566"
       d="m 1722.8015,285.96425 0,14.1024 0,0.071 -35.2559,0 -0.1771,0 0,-14.1024 0,-0.071 35.2559,0 z m 333.8433,123.4665 -0.014,0.05 -0.01,0.021 -1.0701,3.2563 -0.014,0.043 -1.4952,3.0721 -0.021,0.039 0,0 0,0 -1.5166,0.3401 -0.014,0 -0.01,0 -0.01,0 -1.4279,0.2729 -0.018,0 -0.01,0 -0.6449,-0.124 -0.011,0 -0.5846,-0.1878 -0.01,0 -1.1729,-0.6485 -0.018,-0.011 -0.01,0 -0.5704,-0.4145 -0.01,-0.01 -0.2552,-0.2268 -0.2196,-0.2516 0,0 -0.092,-0.1346 0,0 -0.081,-0.1453 0,-0.01 -0.1276,-0.3118 0,0 -0.1736,-0.6768 0,-0.01 0.011,-0.025 3.561,-8.139 0.046,-0.1133 0.011,-0.018 1.148,-3.1713 0.014,-0.043 0.489,-3.32721 0,-0.046 0,-0.021 -0.1736,-1.7114 0,-0.025 -0.1488,-0.8362 0,-0.011 -0.2268,-0.8114 0,-0.011 -0.3224,-0.776 -0.3969,-0.7512 -0.01,-0.014 0,0 -0.9354,-1.4775 0,0 -0.014,-0.014 -5.5488,-5.6197 -0.078,-0.078 0.496,-1.3075 0,-0.01 0,0 0,0 0.9497,-0.3295 0.01,0 0.01,0 0.014,0 0.025,0.011 3.6389,1.3996 0.028,0.014 3.3697,1.9949 0.05,0.032 0.039,0.021 13.1669,7.9795 0.1843,0.1134 0,0 0,0 0.6236,-0.30119 0.01,0 0,0 0,0 0,0 1.4882,-0.4075 0.014,-0.01 0.011,0 0.014,0.011 2.1012,1.2579 0.032,0.018 1.9772,1.4244 0.032,0.021 3.5964,3.3236 0.053,0.053 0.032,0.025 2.0303,1.9205 0.025,0.025 1.8461,2.048 0.025,0.028 0.7972,1.1091 0.6945,1.1834 0.014,0.021 0,0 1.2154,2.5335 0,0.01 -0.6307,0.985 0,0 -0.01,0 -1.6158,0.5174 -0.025,0.01 0,0 -1.8141,0.4181 -0.021,0.01 -0.018,-0.01 -1.8674,-0.7052 -0.028,-0.011 -1.7468,-0.9283 -0.025,-0.014 -3.1536,-2.4661 -0.046,-0.035 -0.018,-0.014 -4.1385,-3.313 -0.06,-0.05 -3.9119,-3.5823 -0.06,-0.053 -0.028,-0.025 -4.0358,-3.0402 -0.039,-0.028 -3.9331,-3.274 -0.014,-0.011 0.01,0.011 0.8788,1.7433 0.01,0.021 0.6909,1.8532 0,0.01 0,0.011 0.5209,1.9984 0.01,0.028 0.1913,2.0587 0,0.028 0,0.014 -0.5492,3.3874 -0.011,0.05 z m -299.0374,325.0063 -0.082,0.9213 0,0 0.082,0.9177 0,0 0.2374,0.8929 0,0 0.3898,0.8362 0,0 0.5315,0.7547 0,0 0.652,0.652 0,0 0.7547,0.528 0,0 0.8362,0.3897 0,0 0.8929,0.241 0,0 0.9177,0.082 0,0 0.9213,-0.082 0,0 0.8893,-0.241 0,0 0.8363,-0.3897 0,0 0.7582,-0.5315 0,0 0.6555,-0.6555 0,0 0.5315,-0.7583 0,0 0.3898,-0.8398 0,0 0.2374,-0.8929 0,0 0.082,-0.9213 0,0 -0.082,-0.9212 0,0 -0.2374,-0.8929 0,0 -0.3898,-0.8398 0,0 -0.5279,-0.7583 0,0 -0.652,-0.6519 0,0 -0.7547,-0.5315 0,0 -0.8362,-0.3933 0,0 -0.8894,-0.2374 0,0 -0.9213,-0.078 0,0 -0.9177,0.078 0,0 -0.8929,0.2409 0,0 -0.8362,0.3898 0,0 -0.7547,0.5279 0,0 -0.652,0.652 0,0 -0.528,0.7583 0,0 -0.3897,0.8362 0,0 -0.241,0.8894 z m 320.6658,-359.0256 0,0 0,0 0,0 0,0 0,0 -0.05,-0.025 -0.021,-0.014 -0.025,-0.018 -0.078,-0.082 -0.011,-0.011 0,0 0,0 0,0 0,0 -0.057,-0.057 -0.06,-0.05 -0.032,-0.021 -0.035,-0.018 -0.074,-0.025 0,0 0,0 0,0 -0.014,0 -1.7185,0.51381 -0.025,0.01 -1.6193,0.7229 -0.025,0.011 -2.9374,2.0622 -0.043,0.032 -0.018,0.014 -2.452,1.846 -0.035,0.025 -2.6894,1.4422 -0.035,0.018 -0.011,0 -1.0842,-0.3296 -0.01,0 -0.2445,-0.1098 -0.01,0 -0.2268,-0.1276 0,0 -0.2055,-0.1488 0,0 -0.1842,-0.1772 0,0 -0.1595,-0.1984 0,0 -0.1417,-0.2197 -0.01,-0.01 -0.2409,-0.4889 0,-0.01 -0.3756,-1.0949 0,-0.018 0,-0.01 -0.8646,-3.8374 -0.011,-0.053 0,-0.01 0.698,-2.5228 0.011,-0.035 0,-0.01 0.2339,-2.3847 0,-0.032 0,-0.018 -0.1949,-2.4909 0,-0.014 0,-0.018 -0.698,-2.3953 -0.011,-0.032 -0.01,-0.014 -0.7973,-1.1374 -0.011,-0.014 -0.4393,-0.5067 -0.4926,-0.4252 0,-0.01 -0.2693,-0.1736 -0.011,-0.01 -0.287,-0.1488 -0.01,0 -0.6165,-0.2304 -0.011,0 -1.3358,-0.3082 -0.018,0 -0.021,0 -1.9382,0.5456 -0.014,0 -0.011,0 -0.8823,0.3934 0,0 -0.4004,0.248 -0.01,0 -0.372,0.287 -0.011,0.011 -0.6591,0.6803 -0.01,0.011 -0.5775,0.7973 -0.01,0.014 -1.0099,1.7787 -0.014,0.025 -0.011,0.025 -1.4598,3.9756 -0.011,0.028 -0.01,0.028 -0.3473,2.0799 0,0.025 -0.17,2.1508 0,0.01 0,0.011 0.2374,2.0728 0,0.028 0.5527,2.0126 0.01,0.028 0,0.011 0.8398,2.6859 0.011,0.035 -0.4146,1.0807 0,0 -1.0665,0.372 0,0 -0.014,-0.014 -1.4386,-1.5236 -0.018,-0.021 -0.6165,-0.822 -0.01,-0.014 -0.5032,-0.8859 -0.01,-0.014 -0.7122,-1.9382 -0.011,-0.025 -0.5102,-2.0905 0,-0.01 -0.01,-0.025 -0.7973,-4.0465 -0.011,-0.053 -0.3366,-4.1102 0,-0.057 0,-0.028 0.1524,-2.374 0,-0.032 0.3968,-2.3067 0.01,-0.032 0.3615,-1.1055 0.4606,-1.0807 0.01,-0.021 0,0 1.102,-2.1402 0,-0.01 0.018,-0.021 1.6263,-1.8531 0.025,-0.025 0.8823,-0.8008 0.014,-0.011 0.9638,-0.6485 0.014,-0.01 1.0665,-0.4606 0.018,0 1.148,-0.3118 0.018,0 2.4378,-0.3614 0.032,0 0.032,0.01 2.817,0.7086 0.018,0.01 0.021,0.01 1.2791,0.528 0.011,0.01 0.5846,0.3402 0.01,0 0.5422,0.4003 0.014,0.011 0.4996,0.4571 0.4642,0.5067 0.014,0.018 0.8362,1.1339 0.014,0.018 1.4669,2.5547 0.021,0.039 0.011,0.025 1.8354,5.152 0.025,0.074 0.9142,5.3964 0.011,0.074 0.011,-0.01 1.513,-1.4031 0.014,-0.014 1.6654,-1.2614 0,0 0.014,-0.01 1.0842,-0.5882 0.014,-0.01 1.1197,-0.4819 0.018,-0.01 1.1764,-0.2906 0.014,0 1.2366,-0.17 0,0 0.014,0 1.6016,0.411 0.011,0 0.011,0 0.7299,0.3047 0,0 0.3331,0.1949 0.01,0 0.3082,0.2268 0.01,0.01 0.2835,0.2622 0.2658,0.287 0.01,0.011 0.4819,0.6449 0,0.01 0.8433,1.4527 0.011,0.021 0.014,0.018 0.9815,1.6158 0.011,0.025 0.8078,1.6759 0.01,0.025 0.2835,0.8788 0.202,0.9106 0,0.018 0.2763,1.8921 0,0 0,0.014 -0.046,1.0878 0,0.014 -0.074,0.5174 -0.1346,0.496 0,0.01 -0.096,0.2339 0,0 -0.1169,0.2267 0,0.01 -0.2941,0.4217 -0.01,0.01 -0.7193,0.7866 -0.011,0.011 -0.011,0.01 -2.3032,0.9213 -0.032,0.014 -2.4307,0.535 -0.035,0.01 -0.985,-0.4358 0,0 -0.365,-1.0134 0,0 0,-0.011 0.861,-2.211 0.011,-0.028 1.0949,-2.1437 0,-0.01 0,-0.01 0.985,-2.328 0.014,-0.032 z m -129.7949,28.4138 0.028,0.021 7.5862,7.4693 0.025,0.025 7.0973,7.9335 0.021,0.025 -62.2205,52.2106 -0.2091,0.1736 -5.0988,-5.563 -0.018,-0.021 -5.563,-5.0988 -0.018,-0.018 -5.9882,-4.5921 -0.021,-0.018 -6.3673,-4.0535 -0.021,-0.014 -6.6933,-3.4867 -0.025,-0.011 -6.9732,-2.8878 -0.021,-0.011 -7.2,-2.2712 -0.025,-0.01 -7.3665,-1.6335 -0.025,0 14.1023,-79.9937 0.05,-0.2657 10.4174,2.1791 0.035,0.01 10.2578,2.8382 0.035,0.011 10.0595,3.4795 0.032,0.011 9.8185,4.1138 0.035,0.014 9.535,4.7268 0.032,0.014 9.2197,5.322 0.032,0.018 0.028,0.021 8.8618,5.8961 8.4721,6.4453 0.028,0.021 z m 106.6216,-71.5606 1.6052,-0.4677 0.025,-0.01 0.021,0 3.3555,-0.31179 0.018,0 0.057,0 4.089,0.46059 0.053,0.014 3.9826,1.0488 0.025,0.011 0.067,0.021 4.741,1.5981 0.067,0.028 4.6205,1.924 0.025,0.011 0.025,0 1.6511,-0.11341 0.01,0 0.011,0 0.8079,-0.12399 0.014,0 0.7831,-0.2374 0,0 0,0 0.535,-1.1764 -0.011,-0.021 -0.5846,-1.66891 0,0 0,-0.01 -0.01,-0.014 -0.6095,-1.2685 0,0 0,0 -0.01,-0.011 -0.6909,-0.7795 -0.014,-0.011 -0.815,-0.6485 0,0 -0.039,-0.025 -2.8311,-1.7787 -0.011,-0.01 -0.1275,-0.1028 -8.9185,-7.207 -0.025,-0.021 -0.1276,-0.1063 -8.752,-7.3099 -0.021,-0.018 -0.1169,-0.099 -8.1602,-6.9697 -0.021,-0.018 0.014,0.011 4.4681,2.4803 0.039,0.021 4.5035,2.2678 0.035,0.018 0.1595,0.092 11.3953,6.6862 0.035,0.021 0.089,0.05 6.2326,3.4972 0.018,0.011 0,0 0.5918,-0.067 0.01,0 0.5669,-0.1275 0.01,0 0.535,-0.2268 0.01,0 0.5209,-0.2835 0,0 0.028,-0.018 2.0516,-1.2472 0.01,-0.01 0,0 0.5775,-1.1729 -0.014,-0.039 -0.9425,-2.6468 0,-0.01 0,0 -0.5882,-1.0913 -0.01,-0.011 -0.7015,-1.0028 0,0 -0.053,-0.039 -3.9685,-2.7425 -0.053,-0.028 -4.3512,-2.126 -0.032,-0.014 -0.096,-0.042 -6.711,-3.0225 -0.096,-0.039 -6.8315,-2.7318 -0.039,-0.014 -0.071,-0.028 -4.8473,-1.7008 -0.071,-0.018 -5.0138,-1.0453 -0.021,0 0,0 -0.6165,0.06 0,0 -0.01,0 -0.2976,0.05 -0.2871,0.078 -0.01,0 -0.2763,0.1099 0,0 -0.2693,0.1381 -0.01,0.01 -0.5209,0.3189 -0.01,0 0,0.01 -0.4216,0.4288 0,0 -0.1808,0.2303 0,0 -0.1452,0.248 0,0 -0.1028,0.2658 0,0 -0.064,0.287 0,0.01 -0.071,0.5988 0,0.01 0.01,0.028 0.6236,2.0622 0.011,0.028 0.404,0.9815 0.5067,0.9284 0.014,0.021 1.2685,1.722 0.018,0.025 1.4492,1.6228 0.018,0.021 0.057,0.057 4.0819,4.1705 0.06,0.053 4.3405,3.8976 0.025,0.021 0.046,0.035 3.2563,2.5016 0.05,0.032 3.4796,2.1827 0.021,0.011 -0.025,0 -1.591,-0.1949 0,0 -0.028,0 -1.9949,-0.046 -0.01,0 -0.011,0 -2.824,0.1347 -0.032,0 -2.7248,0.38971 -0.035,0.01 -2.6114,0.8398 -0.039,0.018 -2.5335,1.1409 -0.028,0.011 -0.028,0.028 -2.1933,1.8992 -0.014,0.014 -0.9354,1.0347 -0.011,0.014 -0.4004,0.5563 -0.01,0.018 -0.3437,0.5846 -0.2835,0.6165 -0.01,0.018 -0.2267,0.6449 -0.326,1.3642 -0.011,0.039 -0.3473,2.8878 0,0.032 0.014,0.05 0.9603,3.6638 0.011,0.025 0.6696,1.6015 0.011,0.021 0.4252,0.7583 0.014,0.018 0.4961,0.7193 0.014,0.018 1.1728,1.3181 1.343,1.1835 0.039,0.032 2.9409,2.133 0.039,0.028 0.046,0.025 3.2102,1.839 0.05,0.021 3.3272,1.4847 0.05,0.018 3.5292,0.8574 0.053,0.01 3.6637,0.4536 0.035,0 0.011,0 2.4095,-0.3331 0.025,0 2.3173,-0.5386 0.032,-0.011 0.032,-0.011 4.4291,-1.8283 0.028,-0.011 0.032,-0.018 2.1721,-1.0382 1.0028,-0.5953 0.028,-0.018 0.9,-0.6874 0.011,-0.011 0.4004,-0.3898 0.3614,-0.4216 0.011,-0.014 0.6094,-0.9461 0.011,-0.014 0.01,-0.018 0.9425,-2.1472 0.01,-0.018 0,-0.011 -0.372,-0.8043 0,-0.011 -0.2232,-0.3756 -0.2552,-0.3508 -0.01,-0.01 -0.011,-0.011 -1.2578,-1.2508 -0.01,-0.01 -0.014,-0.014 -0.9213,-0.978 -0.01,-0.01 -0.535,-0.3968 -0.01,-0.01 -0.5811,-0.3366 0,0 -0.1099,0.067 -7.6783,4.8189 -0.021,0.014 -0.01,0 -1.9737,0.7618 -0.021,0.01 -1.9842,0.5598 -0.028,0.01 -0.028,0 -4.135,0.3756 -0.025,0 -0.053,0 -3.7701,-0.3649 -0.028,-0.01 -0.025,-0.011 -3.5858,-1.2047 -0.018,-0.01 -0.025,-0.014 -1.5556,-0.9178 -0.011,-0.01 -0.6874,-0.5208 -0.011,-0.01 -0.3047,-0.2906 -0.2764,-0.3083 -0.01,-0.011 -0.2374,-0.3366 0,0 -0.2019,-0.3649 0,0 -0.3154,-0.7902 0,-0.011 0,-0.014 -0.4181,-1.7327 -0.01,-0.018 0.01,-0.025 0.2976,-1.6015 0,-0.011 0.2445,-0.7406 0,-0.011 0.163,-0.3472 0,0 0.1949,-0.326 0,0 0.2303,-0.3012 0.01,-0.011 0.2551,-0.2835 0.011,-0.01 0.5882,-0.5208 0.011,0 1.35,-0.9319 0.018,-0.011 0,0 1.5945,-0.6343 z m -6.5409,200.1756 0.011,0.021 0.8787,1.4634 0.4855,0.6803 0.014,0.018 0.5421,0.6165 0.01,0.01 0.6165,0.5315 0.011,0.01 0.691,0.4429 0.021,0.014 1.5165,0.7477 0.014,0.01 0,0 1.4351,-1.2331 -0.039,-0.057 -2.6504,-3.9898 -0.01,-0.011 0,0 -0.2516,-0.5811 0,-0.01 -0.1878,-0.5846 0,-0.011 -0.092,-0.6095 0,-0.011 -0.035,-0.6236 0,-0.01 0.01,-0.025 0.528,-1.7681 0.01,-0.011 0.3543,-0.8291 0,-0.014 0.4606,-0.7654 0.01,-0.011 0.01,-0.01 0.5599,-0.70859 0.6342,-0.66261 0.018,-0.018 1.389,-1.25079 0.018,-0.018 0,0 1.5059,-1.265 0.018,-0.011 1.5378,-1.0524 0.011,0 0.783,-0.3826 0.014,-0.01 0.7902,-0.287 0.028,-0.011 1.7823,-0.4678 0.018,0 0,0 0.815,0.8575 0,0 0.01,0.01 0.3614,0.45 0.3189,0.4784 0.01,0.014 0.01,0.014 0.9567,2.1295 0.01,0.014 0.018,0.05 1.3252,3.3024 0.025,0.046 1.6192,3.1677 0.01,0.014 0,0.01 1.1977,1.7043 0.014,0.018 1.3287,1.5307 0.021,0.018 1.5768,1.2792 0.025,0.014 1.7185,1.1267 0.021,0.014 0.021,0.014 1.4705,1.102 0,0 0,0 0.326,0.1665 0,0 0.3295,0.1311 0.01,0 0.3437,0.071 0.01,0 0.3579,0.032 0,0 0.021,-0.01 1.5555,-0.3755 0.011,0 0.7051,-0.2835 0.011,-0.01 0.3189,-0.1843 0,0 0.2977,-0.2161 0,0 0.2692,-0.2516 0.01,-0.01 0.2481,-0.2834 0,-0.01 0.4429,-0.6343 0,-0.011 0.7547,-1.435 0.011,-0.018 0,-0.01 0.7335,-2.6965 0.01,-0.028 0.5067,-2.6929 0.01,-0.078 0.2374,-5.4992 0,-0.039 -0.01,-0.089 -0.528,-6.6083 0,-0.021 0,-0.018 -0.6661,-5.4248 0,-0.071 -0.4252,-5.3752 0,-0.021 0,0 0,-0.01 0.2232,-0.7618 0,0 0,0 0,0 0,-0.011 0.2728,-0.9779 0,0 0,0 -0.021,-0.021 -1.6937,-1.7008 -0.025,-0.021 -1.9878,-1.3642 -0.014,-0.01 -0.028,-0.018 -1.8815,-1.1516 -0.014,-0.01 -1.0133,-0.4145 -0.014,-0.01 -1.0595,-0.3083 -0.01,0 0,0 0,0 -0.4252,0.074 -0.01,0 -0.411,0.1382 0,0 0,0 0,0 0,0 -0.5705,0.1807 0,0 0,0 0,0 -0.5527,1.1764 0.028,0.053 1.8354,3.6709 0.025,0.053 1.4705,3.8267 0,0.018 0.01,0.05 0.4641,3.8268 0,0.053 0.082,3.8587 0,0.028 -0.018,-0.014 -5.5346,-3.4123 -0.05,-0.028 -5.5949,-3.1429 -0.046,-0.021 -0.209,-0.1204 -14.3965,-8.0398 -0.032,-0.018 -0.064,-0.035 -4.1067,-2.2217 -0.064,-0.025 -4.3157,-1.7539 -0.014,-0.01 0,0 0,0 -0.5457,0.1169 0,0 0,0 0,0 -0.01,0 -0.8965,0.2729 0,0 0,0 0,0 -0.7689,1.2614 0.01,0.028 0.489,1.963 0,0.01 0.01,0.021 0.5457,1.7858 0,0.01 0.01,0 1.5342,0.9425 0,0 1.0134,-0.1027 0.081,0.032 5.6941,2.2996 0.078,0.035 5.5488,2.6433 0.032,0.018 0.1524,0.082 10.7858,5.8075 0.032,0.018 0.1418,0.089 10.6122,6.6472 0.039,0.025 0,0 0.01,1.2862 0,0.046 -0.1276,3.2103 -0.011,0.046 -0.6697,3.1323 0,0.014 0,0.014 -0.3118,0.7582 0,0.01 -0.1878,0.3437 0,0.01 -0.2232,0.3047 0,0 -0.1276,0.1347 -0.1452,0.1169 0,0 -0.326,0.1949 0,0 -0.01,0 -0.7406,0.2906 -0.01,0 -0.014,-0.011 -1.0523,-0.7122 -0.01,-0.01 -0.2303,-0.202 -0.01,-0.01 -0.2091,-0.2232 -0.3543,-0.4926 0,-0.01 0,-0.01 -0.2835,-0.5527 -0.01,-0.018 -0.2303,-0.5953 -0.3721,-1.2614 -0.01,-0.021 -0.021,-0.06 -1.4315,-4.1457 -0.025,-0.06 -1.7291,-4.0252 -0.01,-0.018 -0.021,-0.025 -1.3642,-1.8567 -0.011,-0.011 -0.7547,-0.8114 -0.011,-0.011 -0.4075,-0.3543 -0.4323,-0.3154 -0.014,-0.01 -0.4606,-0.2693 -0.014,-0.01 -0.489,-0.2232 -0.014,0 -1.0452,-0.3366 -0.018,0 -2.25,-0.4181 -0.025,0 -0.035,0 -2.5158,0.3012 -0.035,0.01 -1.2189,0.2551 -1.1728,0.372 -0.018,0.01 -1.1162,0.5209 -0.014,0.01 -1.0736,0.6414 -0.028,0.018 -2.0657,1.4775 -0.021,0.018 -0.025,0.025 -1.6831,1.8319 -0.7299,0.9709 -0.021,0.025 -0.5918,1.0346 -0.011,0.014 -0.4252,1.1091 0,0.018 -0.287,1.1764 -0.01,0.032 -0.333,2.4626 0,0.028 0,0.01 0.3437,1.7964 0,0.018 0.5315,1.7043 0.011,0.025 0.011,0.021 1.722,3.1678 z m 88.8094,428.49214 0,-176.57364 0,-0.5918 -10.5945,0 -0.035,0 0,-317.8346 0,-1.063 10.5945,0 0.035,0 0,-176.5736 0,-0.5917 -10.5945,0 -0.035,0 0,-12.32721 0,-0.043 -60.0342,0 -0.202,0 0,-0.035 0,-10.5945 -120.072,0 -0.4004,0 0,0.035 0,10.5945 -120.072,0 -0.4004,0 0,-0.035 0,-10.5945 -120.071,0 -0.4015,0 0,0.035 0,10.5945 -123.6026,0 -0.4131,0 0,-10.5945 0,-0.035 -52.9725,0 -0.1771,0 0,0.035 0,10.5945 -57.5245,0 -0.1924,0 0,12.3307 0,0.039 -10.5959,0 -0.035,0 0,176.57721 0,0.5882 10.5959,0 0.035,0 0,317.8346 0,1.063 -10.5959,0 -0.035,0 0,176.57714 0,0.5882 10.5959,0 0.035,0 0,48.91541 0,0.163 57.5245,0 0.1924,0 52.9724,0 0.1772,0 51.9519,0 0.1737,0 0,-48.91541 0,-0.163 10.5945,0 0.035,0 0,48.91541 0,0.163 61.0561,0 0.2041,0 120.072,0 0.4004,0 120.0721,0 0.4004,0 120.072,0 0.4004,0 60.0342,0 0.202,0 0,-48.91541 0,-0.163 10.5945,0 z m -144.9035,-491.01384 3.3201,10.1162 0.011,0.032 2.6752,10.3039 0.01,0.035 2.0161,10.4492 0.01,0.035 1.3465,10.5591 0,0.035 0.6768,10.6228 0,0.035 0,10.6441 0,0.035 -0.6733,10.6264 0,0.035 -1.3464,10.559 0,0.032 -0.01,0.035 -2.0162,10.4528 -2.6716,10.3039 -0.011,0.035 -3.3201,10.11259 -0.011,0.032 -76.3264,-27.7795 -0.2551,-0.092 2.2677,-7.2 0.011,-0.025 1.6335,-7.3665 0,-0.025 0.985,-7.4835 0,-0.025 0.3296,-7.5402 0,-0.028 -0.3296,-7.5401 0,-0.025 -0.985,-7.4835 0,-0.025 -1.6335,-7.3701 0,-0.025 -2.2712,-7.1964 -0.01,-0.025 76.3264,-27.7796 z m 85.3583,24.5799 -0.014,0 -0.01,0 -0.5705,-0.018 -0.01,0 -0.5528,-0.071 -0.01,0 -0.2657,-0.074 -0.2587,-0.1027 -0.01,0 -0.5067,-0.2551 -0.01,0 0,0 -0.4074,-0.4642 0,-0.01 -0.1843,-0.2409 -0.1594,-0.2587 0,-0.01 -0.2552,-0.5563 0,-0.01 -0.2126,-0.5917 0,0 0,-0.014 1.1906,-4.9961 0.018,-0.067 0,-0.014 0.4535,-2.44841 0.01,-0.035 0.1701,-2.48031 0,-0.035 0,-0.032 -0.3756,-5.3292 -0.01,-0.074 -0.5917,-2.5937 -0.01,-0.028 -0.8114,-2.59009 0,-0.011 -0.025,-0.025 -2.0339,-2.1862 -0.032,-0.028 -1.0878,-0.9496 -0.018,-0.014 -1.1799,-0.78311 -0.018,-0.01 -1.2898,-0.574 -0.021,-0.01 -1.3854,-0.3898 -0.021,0 -2.9339,-0.4783 -0.043,-0.01 -0.025,0.01 -2.5476,0.4571 -0.035,0.011 -1.2118,0.3507 -0.018,0 -1.1445,0.4961 -0.014,0.01 -1.0665,0.6555 -0.028,0.021 -1.0063,0.7795 -1.9099,1.7646 -0.028,0.025 -0.021,0.025 -1.6547,2.0161 -0.018,0.028 -0.7299,1.0488 -0.011,0.018 -0.6095,1.102 -0.01,0.014 -0.4606,1.1693 -0.3224,1.2295 -0.011,0.035 -0.4181,2.5583 0,0.035 0,0.01 0.053,0.8717 0,0.014 0.1807,0.8539 0,0.011 3.3059,11.902 0.011,0.042 -1.0276,1.187 0,0 -0.018,-0.011 -2.0905,-1.3429 -0.014,-0.011 -0.4571,-0.3898 -0.014,-0.011 -0.4146,-0.4252 -0.011,-0.014 -0.3685,-0.4606 -0.3295,-0.4961 -0.01,-0.014 -0.5528,-1.0772 -0.014,-0.032 -0.4393,-1.1657 -0.6981,-2.4803 -0.011,-0.039 -0.011,-0.032 -1.3854,-4.9004 -0.018,-0.067 -0.698,-5.0386 -0.011,-0.067 0,-0.039 0.2905,-3.1465 0.01,-0.046 0.2622,-1.5342 0,-0.021 0.404,-1.4882 0.01,-0.021 0.5704,-1.4315 0.7158,-1.3819 0.021,-0.039 1.6653,-2.6894 0.021,-0.035 0.028,-0.028 2.2252,-2.3102 0.032,-0.028 1.1941,-1.0063 0.018,-0.011 1.2827,-0.8221 0.021,-0.011 1.3996,-0.5952 0.021,-0.01 1.4988,-0.4075 0.021,0 3.1642,-0.4961 0.043,0 0.011,0 1.8957,0.1382 0.014,0 0.014,0 0.9141,0.2374 0.011,0 0.9107,0.326 0,0 0.01,0.01 3.0224,1.8567 0.043,0.025 0.035,0.025 2.9941,2.1012 0.039,0.032 2.7602,2.335 0.035,0.035 2.3563,2.739 0.032,0.039 2.1083,2.987 0.028,0.043 0.018,0.035 1.5413,3.3484 0.021,0.05 1.1764,3.4441 0.014,0.05 0.5917,3.59291 0.01,0.053 0.2516,3.68151 0,0.053 0,1.34651 0,0 0,0 0.057,1.3748 0,0.021 0,0.011 -0.064,1.8071 0,0.025 -0.1701,0.8823 0,0.01 -0.2551,0.8787 0,0 -0.01,0.011 -0.6484,0.9071 0,0.01 -0.3614,0.3897 -0.01,0.01 -0.1949,0.1666 -0.01,0.01 -0.209,0.1452 0,0 -0.2268,0.1205 0,0 -0.2374,0.099 -0.01,0 -0.5103,0.1488 -0.011,0 z m -71.061,235.6264 0,0 0.8929,0.2374 0,0 0.8362,0.3933 0,0 0.7547,0.5315 0,0 0.652,0.652 0,0 0.5279,0.7582 0,0 0.3933,0.8398 0,0 0.2374,0.8929 0,0 0.082,0.9213 0,0 -0.082,0.9212 0,0 -0.2374,0.893 0,0 -0.3897,0.8397 0,0 -0.5315,0.7583 0,0 -0.652,0.6555 0,0 -0.7547,0.5315 0,0 -0.8362,0.3898 0,0 -0.8929,0.2409 0,0 -0.9213,0.082 0,0 -0.9177,-0.082 0,0 -0.8929,-0.2409 0,0 -0.8362,-0.3898 0,0 -0.7548,-0.5279 0,0 -0.6519,-0.652 0,0 -0.528,-0.7547 0,0 -0.3933,-0.8363 0,0 -0.2374,-0.8929 0,0 -0.081,-0.9177 0,0 0.081,-0.9212 0,0 0.2374,-0.8894 0,0 0.3898,-0.8362 0,0 0.5315,-0.7583 0,0 0.6519,-0.652 0,0 0.7548,-0.5279 0,0 0.8362,-0.3898 0,0 0.8929,-0.2409 0,0 0.9213,-0.078 0,0 z m -201.6815,-36.8894 -0.035,-0.01 -10.4174,-2.1826 -10.2614,-2.8347 -0.032,-0.011 -10.0594,-3.4795 -0.035,-0.014 -9.8185,-4.1102 -0.032,-0.014 -9.5386,-4.7268 -0.032,-0.018 -9.2161,-5.3221 -0.032,-0.018 -8.8618,-5.896 -0.028,-0.018 -8.4721,-6.4489 -0.028,-0.021 -8.0444,-6.9696 -0.027,-0.025 -7.5862,-7.4658 -0.025,-0.025 -7.0976,-7.9335 -0.024,-0.025 62.2233,-52.2106 0.2055,-0.1736 5.0989,5.563 0.018,0.021 5.5665,5.0988 0.018,0.018 5.9882,4.5921 0.021,0.018 6.3638,4.0536 0.021,0.014 6.6968,3.4866 0.021,0.011 6.9732,2.8878 0.025,0.011 7.1965,2.2677 0.025,0.011 7.3701,1.6335 0.025,0 -14.1059,79.9901 z m 260.6598,-244.396 0.035,0 0.028,0 2.6468,-0.4039 0.018,0 1.2331,-0.3508 0.018,-0.01 0.5811,-0.2374 0.018,-0.01 0.5492,-0.28699 0.014,-0.011 0.5174,-0.3437 0.4854,-0.39691 0.014,-0.014 0.8965,-0.9177 0.014,-0.014 1.6193,-2.1295 0.025,-0.028 0.011,-0.028 1.0311,-2.5193 0.014,-0.035 0.7582,-2.5796 0.011,-0.039 0.3437,-2.67161 0,-0.032 0.1134,-2.7638 0,-0.01 0,-0.028 -0.3189,-4.1067 0,-0.028 -0.01,-0.028 -0.5527,-1.9665 0,-0.021 -0.7796,-1.9453 0,-0.01 -0.014,-0.011 -4.6063,-4.9748 -0.064,-0.071 0.6095,-1.75391 0,-0.01 0,0 0,0 0.7193,-0.36139 0.01,0 0,0 0,0 0,0 0.2586,-0.11341 0,0 0.1347,-0.035 0.1382,-0.025 0,0 0,0 0,0 1.4669,0.046 0.018,0 0,0 1.4103,0.287 0.018,0 0.018,0.021 1.683,2.0834 0.025,0.028 1.4492,2.1154 0.018,0.032 2.2642,4.7516 0.032,0.067 0.011,0.032 1.5166,5.05631 0.018,0.071 0.3791,2.54759 0,0.035 0.2055,2.7142 0,0.039 -0.2409,3.43351 -0.01,0.05 -0.241,1.676 -0.01,0.025 -0.3862,1.6334 -0.01,0.021 -0.5705,1.5768 -0.7334,1.5236 -0.021,0.043 -1.7292,2.9693 -0.025,0.043 -0.025,0.028 -2.459,2.4236 -0.035,0.032 -1.3146,1.0418 -0.018,0.011 -1.4138,0.8362 -0.021,0.01 -1.5378,0.5882 -0.021,0.01 -1.6334,0.3826 -0.021,0 -3.43,0.4359 -0.05,0.01 -0.035,0 -2.9763,-0.1772 -0.039,0 -1.4493,-0.1949 -0.021,-0.01 -1.3996,-0.3189 -0.018,0 -1.3216,-0.4712 -1.2579,-0.5988 -0.035,-0.018 -2.5795,-1.5272 -0.035,-0.021 -0.018,-0.021 -1.7221,-1.8425 -0.025,-0.025 -1.5059,-1.9914 -0.021,-0.028 -1.1976,-2.1968 -0.014,-0.028 -1.0453,-2.3421 0,-0.01 -0.011,-0.028 -3.9153,-9.0745 -0.053,-0.1311 -0.011,0 -4.0181,-1.4988 -0.057,-0.021 -0.011,0 -1.9878,-0.5527 -0.028,0 -2.0552,-0.202 -0.028,0 0,0 -1.2047,0.057 -0.018,0 -0.01,-0.01 -0.6378,-0.6024 -0.01,-0.01 -0.287,-0.3259 0,0 -0.2516,-0.3508 0,-0.01 -0.4039,-0.7689 -0.01,-0.011 -0.3402,-0.8292 0,0 0,-0.011 -1.1551,-3.4653 -0.014,-0.046 0.3437,-1.0524 0,0 1.187,-0.5492 0,0 0.014,0 2.7248,0.5599 0.039,0.011 2.6929,0.9531 0.039,0.014 0.011,0.01 4.741,2.04799 0.067,0.032 0,0 0,0 0.9921,-0.82909 0.01,-0.01 0.01,0 0,0 0.7086,-0.40389 0,0 0.01,0 0.3827,-0.13111 0,0 0.404,-0.099 0,0 0,0 0.4925,0.3295 0.01,0 0.2126,0.1701 0,0 0.1984,0.1984 0,0 0.365,0.4748 0,0 0.3366,0.5315 0,0 0,0 0.8256,1.5803 0.011,0.021 0.018,0.01 6.9555,2.57949 0.099,0.035 0.035,0.014 10.3961,4.2272 0.1417,0.057 0.025,0.014 1.8425,0.8504 0.025,0.011 1.7256,0.9992 0.021,0.014 0.7831,0.5988 0.7157,0.6839 0.021,0.021 1.311,1.5201 0.018,0.021 -1.5519,1.2649 -0.01,0 -0.021,0 -3.8728,-0.5669 -0.057,-0.011 -3.802,-0.9319 -0.053,-0.011 -0.014,-0.01 -7.1646,-2.7354 -0.1063,-0.043 -0.021,-0.01 -6.6472,-1.9382 -0.092,-0.025 0,0 0.014,0.021 0.01,0.021 0.9779,2.2217 0.014,0.028 1.2012,2.0692 0.018,0.028 1.5484,1.82479 0.018,0.021 1.7646,1.715 0.01,0.01 0.025,0.018 1.9842,1.5059 0.028,0.021 1.0276,0.6626 0.018,0.01 1.0736,0.5563 0.014,0 1.1339,0.4146 1.1834,0.2905 0.032,0.01 z m -301.8862,522.66614 0,0 0.8929,0.2409 0,0 0.8398,0.3898 0,0 0.7582,0.528 0,0 0.6555,0.6519 0,0 0.5315,0.7548 0,0 0.3898,0.8362 0,0 0.241,0.8929 0,0 0.082,0.9177 0,0 -0.082,0.9213 0,0 -0.241,0.8893 0,0 -0.3898,0.8363 0,0 -0.5279,0.7582 0,0 -0.652,0.652 0,0 -0.7547,0.5279 0,0 -0.8362,0.3898 0,0 -0.8929,0.241 0,0 -0.9178,0.078 0,0 -0.9212,-0.078 0,0 -0.8894,-0.2375 0,0 -0.8362,-0.3933 0,0 -0.7583,-0.5315 0,0 -0.6519,-0.6519 0,0 -0.528,-0.7583 0,0 -0.3898,-0.8398 0,0 -0.2409,-0.8929 0,0 -0.078,-0.9212 0,0 0.078,-0.9213 0,0 0.2374,-0.8929 0,0 0.3933,-0.8398 0,0 0.5315,-0.7582 0,0 0.652,-0.6555 0,0 0.7582,-0.5315 0,0 0.8398,-0.3898 0,0 0.8929,-0.2409 0,0 0.9213,-0.082 0,0 z m -120.0295,-188.80164 0,1.063 -10.5945,0 -0.035,0 0,-317.8346 0,-1.063 10.5945,0 0.035,0 z m 217.0629,-36.6838 0,219.13934 0.528,0 158.4744,0 0,-0.7334 0,-219.13944 -0.5279,0 -158.4745,0 z m -59.9456,50.2582 0,21.3166 0.071,0 20.8346,0 0,-0.071 0,-21.3166 -0.067,0 -20.8381,0 z m 0,-72.1311 0,21.45119 0.071,0 20.7035,0 0,-0.071 0,-21.4512 -0.071,0 -20.7035,0 z m -27.0036,36.0497 0,21.3909 0.071,0 20.8311,0 0,-0.071 0,-21.3909 -0.071,0 -20.8311,0 z m 52.363,86.4673 0,21.31999 0.071,0 20.8949,0 0,-0.071 0,-21.32 -0.067,0 -20.8984,0 z m 1.5768,-86.4567 0,21.3803 0.067,0 20.909,0 0,-0.071 0,-21.3803 -0.067,0 -20.909,0 z m -53.7839,-190.5343 3.8906,5.0705 0.1417,-0.1205 42.6083,-35.7519 -1.226,-1.6477 0,0 0,-0.01 -1.0276,-1.7787 -0.8114,-1.885 0,0 -0.1736,0.06 -52.2673,19.024 0.01,0.021 2.4449,5.9067 0.011,0.018 2.9515,5.6693 0.014,0.018 3.4335,5.3929 z m 26.8477,190.5343 0,21.3803 0.071,0 20.8346,0 0,-0.071 0,-21.3803 -0.067,0 -20.8381,0 z m 25.1752,131.4319 0,21.3874 0.071,0 20.8807,0 0,-0.071 0,-21.3874 -0.071,0 -20.8807,0 z m 64.513,-411.4134 3.8905,5.07049 0.014,0.018 3.4335,5.3894 0.011,0.018 2.9515,5.6728 0.011,0.018 0.011,0.021 2.4449,5.9031 -52.2673,19.024 -0.1736,0.064 0,0 -0.8114,-1.8885 -1.0276,-1.7752 0,-0.01 0,-0.01 -1.226,-1.6477 42.6083,-35.7519 z m -48.4689,453.9401 0,0 0.8893,0.241 0,0 0.8363,0.38969 0,0 0.7547,0.53151 0,0 0.6519,0.652 0,0 0.528,0.7547 0,0 0.3898,0.83629 0,0 0.2374,0.89291 0,0 0.078,0.9212 0,0 -0.082,0.92129 0,0 -0.2374,0.89291 0,0 -0.3898,0.8362 0,0 -0.5315,0.75479 0,0 -0.6555,0.65191 0,0 -0.7583,0.528 0,0 -0.8362,0.39329 0,0 -0.8894,0.2374 0,0 -0.9212,0.082 0,0 -0.9177,-0.082 0,0 -0.893,-0.2374 0,0 -0.8362,-0.38979 0,0 -0.7582,-0.5315 0,0 -0.652,-0.65551 0,0 -0.5315,-0.7547 0,0 -0.3898,-0.83619 0,0 -0.2374,-0.88941 0,0 -0.082,-0.92129 0,0 0.082,-0.9177 0,0 0.241,-0.89291 0,0 0.3897,-0.83619 0,0 0.528,-0.7547 0,0 0.6519,-0.652 0,0 0.7548,-0.53151 0,0 0.8362,-0.38979 0,0 0.8929,-0.2374 0,0 0.9177,-0.082 0,0 z m -10.963,-389.0515 -9.6591,54.776 0.021,0 6.339,0.8326 0.021,0 6.385,0.27639 0.021,0 6.3886,-0.2799 0.021,0 6.339,-0.83619 -0.035,-0.1843 -9.6555,-54.7759 -2.041,0.2409 -0.01,0 -0.01,0 -2.0515,0 -2.041,-0.2374 -0.01,0 z m -187.3736,-193.8083 0,35.3162 0,0.1169 -10.5945,0 -0.035,0 0,-35.3161 0,-0.117 0.035,0 z m 121.4007,151.0122 -0.01,0.018 0.1737,0.064 52.2673,19.02399 0.8114,-1.885 0,-0.01 0,0 1.0276,-1.7787 1.2259,-1.6477 0,-0.01 -0.1417,-0.1169 -42.6083,-35.752 -0.014,0.014 -3.8905,5.074 -0.011,0.018 -3.437,5.3894 -0.01,0.021 -2.9551,5.66931 z m 81.8504,-47.2393 -9.659,54.7759 -0.032,0.1807 -0.01,0 -2.041,-0.2374 -2.0515,0 -0.01,0 -0.01,0 -2.041,0.2374 -9.659,-54.77591 -0.032,-0.18069 6.3389,-0.8363 0.021,0 6.3851,-0.2763 0.021,0 6.3886,0.2799 0.021,0 6.3389,0.8362 z m 43.5544,119.6645 -42.6083,-35.7519 -0.1417,-0.1205 0,0 1.2259,-1.6477 1.0276,-1.7787 0,-0.01 0,0 0.815,-1.885 52.2673,19.0204 0.1736,0.064 -2.4449,5.9067 -0.011,0.021 -2.9515,5.6693 -0.011,0.018 -3.4335,5.3929 -0.011,0.018 -3.8941,5.0705 z m -48.6036,393.72524 0,0 0.8894,0.2409 0,0 0.8362,0.3898 0,0 0.7583,0.5279 0,0 0.6555,0.652 0,0 0.5279,0.7547 0,0 0.3898,0.8363 0,0 0.2409,0.8929 0,0 0.078,0.9177 0,0 -0.078,0.9212 0,0 -0.2374,0.8894 0,0 -0.3933,0.8362 0,0 -0.5279,0.7548 0,0 -0.652,0.6519 0,0 -0.7582,0.528 0,0 -0.8398,0.3897 0,0 -0.8929,0.2375 0,0 -0.9213,0.078 0,0 -0.9212,-0.082 0,0 -0.893,-0.2374 0,0 -0.8397,-0.3898 0,0 -0.7583,-0.5315 0,0 -0.6555,-0.6555 0,0 -0.5315,-0.7582 0,0 -0.3898,-0.8363 0,0 -0.2409,-0.8893 0,0 -0.082,-0.9213 0,0 0.078,-0.9177 0,0 0.2409,-0.8929 0,0 0.3898,-0.8362 0,0 0.528,-0.7583 0,0 0.6519,-0.652 0,0 0.7548,-0.5315 0,0 0.8362,-0.3897 0,0 0.8929,-0.241 0,0 0.9177,-0.082 0,0 z m -129.5528,-557.10354 -7.0976,7.93339 0.2083,0.1737 62.2205,52.2106 0.018,-0.018 5.0988,-5.5665 0.018,-0.018 5.5665,-5.0989 0.021,-0.014 5.9882,-4.5956 0.021,-0.014 6.3638,-4.0536 0.025,-0.011 6.6933,-3.4866 0.025,-0.011 6.9732,-2.8878 0.025,-0.01 7.1965,-2.2712 0.025,0 7.37,-1.6335 -0.046,-0.2693 -14.1059,-79.9901 -0.035,0.01 -10.4173,2.1791 -0.035,0.011 -10.2578,2.8382 -0.035,0.011 -10.0595,3.4795 -0.032,0.014 -9.8185,4.1138 -0.032,0.014 -9.5386,4.7268 -0.028,0.018 -9.2197,5.322 -8.8618,5.8961 -0.028,0.021 -0.028,0.021 -8.472,6.4452 -0.025,0.025 -8.0465,6.9697 -0.025,0.025 -7.5862,7.4693 z m 136.9548,201.87989 14.1059,79.9901 10.4173,-2.1791 0.035,-0.011 0.035,-0.01 10.2579,-2.8382 0.035,-0.011 10.0559,-3.4831 0.035,-0.011 9.8185,-4.1137 0.032,-0.018 9.535,-4.72679 0.032,-0.018 9.2197,-5.322 0.028,-0.018 8.8618,-5.8961 0.028,-0.021 8.4721,-6.4488 0.025,-0.021 8.0468,-6.9733 0.025,-0.025 7.5862,-7.4657 0.021,-0.025 7.0973,-7.9335 -0.2055,-0.17361 -62.2241,-52.2106 -0.014,0.018 -5.1023,5.5665 -0.018,0.014 -5.563,5.1024 -0.021,0.014 -5.9882,4.5957 -0.021,0.011 -6.3673,4.057 -0.021,0.011 -6.6969,3.4867 -0.021,0.011 -6.9732,2.8878 -0.025,0.01 -7.2,2.2712 -0.025,0 -7.3665,1.6335 z m 157.4256,358.17165 0,0 0.8929,0.2374 0,0 0.8362,0.3898 0,0 0.7547,0.5315 0,0 0.652,0.6519 0,0 0.5279,0.7548 0,0 0.3934,0.8362 0,0 0.2374,0.8929 0,0 0.082,0.9213 0,0 -0.082,0.9177 0,0 -0.2374,0.8929 0,0 -0.3898,0.8362 0,0 -0.5315,0.7547 0,0 -0.652,0.652 0,0 -0.7547,0.528 0,0 -0.8362,0.3933 0,0 -0.8929,0.2374 0,0 -0.9213,0.082 0,0 -0.9177,-0.082 0,0 -0.8929,-0.2374 0,0 -0.8363,-0.3898 0,0 -0.7547,-0.5315 0,0 -0.652,-0.652 0,0 -0.5279,-0.7547 0,0 -0.3933,-0.8362 0,0 -0.2374,-0.8929 0,0 -0.082,-0.9213 0,0 0.082,-0.9177 0,0 0.2374,-0.8929 0,0 0.3898,-0.8362 0,0 0.5314,-0.7548 0,0 0.652,-0.6519 0,0 0.7547,-0.528 0,0 0.8362,-0.3933 0,0 0.893,-0.2374 0,0 0.9212,-0.082 0,0 z m -334.0254,-396.48184 3.3215,10.11259 0.2551,-0.092 76.3263,-27.7796 -0.01,-0.025 -2.2712,-7.2 0,-0.021 -1.6335,-7.37 0,-0.025 -0.985,-7.4835 0,-0.025 -0.3295,-7.5437 0,-0.025 0.3295,-7.5401 0,-0.025 0.985,-7.4835 0,-0.025 1.6335,-7.3701 0.01,-0.021 2.2712,-7.2 -0.2551,-0.092 -76.3264,-27.7831 -0.011,0.035 -3.3215,10.1126 -0.01,0.035 -2.6734,10.304 -0.01,0.035 -2.0143,10.4492 -0.01,0.035 -1.3476,10.559 0,0.035 -0.675,10.6229 0,0.035 0,10.6441 0,0.039 0.675,10.6228 0.01,0.035 1.3476,10.5555 2.0143,10.4528 0.01,0.035 0.01,0.035 2.6731,10.3039 z m 290.7403,-288.9709 0.1772,0 0,14.1024 0,0.071 -35.2559,0 -0.1772,0 0,-14.1024 0,-0.071 z"
       inkscape:connector-curvature="0"
       style="fill:none;stroke:#000000;stroke-width:0.17716535mm;stroke-opacity:1" />
    <rect
       style="opacity:1;fill:none;fill-opacity:1;stroke:#000000;stroke-width:0.78399998;stroke-miterlimit:4;stroke-dasharray:none;stroke-opacity:1"
       id="rect3377"
       width="102.30143"
       height="122.04381"
       x="1329.9185"
       y="220.49005" />
    <rect
       style="opacity:1;fill:none;fill-opacity:1;stroke:#000000;stroke-width:0.78399998;stroke-miterlimit:4;stroke-dasharray:none;stroke-opacity:1"
       id="rect3377-7"
       width="102.30143"
       height="122.04381"
       x="1332.6106"
       y="354.1998" />
    <rect
       style="opacity:1;fill:none;fill-opacity:1;stroke:#000000;stroke-width:0.78399998;stroke-miterlimit:4;stroke-dasharray:none;stroke-opacity:1"
       id="rect3377-7-8"
       width="102.30143"
       height="122.04381"
       x="1334.4054"
       y="490.60172" />
    <rect
       style="opacity:1;fill:none;fill-opacity:1;stroke:#000000;stroke-width:0.78399998;stroke-miterlimit:4;stroke-dasharray:none;stroke-opacity:1"
       id="rect3377-7-8-2"
       width="102.30143"
       height="122.04381"
       x="625.56134"
       y="-1445.597"
       transform="matrix(0,1,-1,0,0,0)" />
  </g>
</svg>
