<?xml version="1.0" standalone="no"?>
<!DOCTYPE svg PUBLIC "-//W3C//DTD SVG 1.1//EN"
"http://www.w3.org/Graphics/SVG/1.1/DTD/svg11.dtd">
<svg width="67.4175mm" height="155.417mm" viewBox="-221.107 210.93 67.4175 155.417" xmlns="http://www.w3.org/2000/svg" version = "1.1">
<title>PCR casing.123dx</title>
<desc> made with 123D Design </desc>
<path d="M -156.764 236.862 L -159.753 236.862 L -159.753 221.047 L -159.753 220.994 L -178.28 220.994 L -178.342 220.994 L -178.342 220.984 L -178.342 217.994 L -198.276 217.994 L -198.342 217.994 L -198.342 218.004 L -198.342 220.994 L -217.977 220.994 L -218.042 220.994 L -218.042 355.832 L -218.042 356.283 L -198.408 356.283 L -198.342 356.283 L -198.342 356.293 L -198.342 359.282 L -178.409 359.282 L -178.342 359.282 L -178.342 359.272 L -178.342 356.283 L -159.815 356.283 L -159.753 356.283 L -159.753 339.6 L -159.753 339.544 L -159.743 339.544 L -156.754 339.544 L -156.754 301.988 L -156.754 301.862 L -156.764 301.862 L -159.753 301.862 L -159.753 274.635 L -159.753 274.544 L -159.743 274.544 L -156.754 274.544 L -156.754 236.988 L -156.754 236.862 z  " fill= "none" stroke="rgb(0,0,255)" stroke-width="0.05mm" />
</svg>
