<?xml version="1.0" standalone="no"?>
<!DOCTYPE svg PUBLIC "-//W3C//DTD SVG 1.1//EN"
"http://www.w3.org/Graphics/SVG/1.1/DTD/svg11.dtd">
<svg width="33.0005mm" height="25.2996mm" viewBox="-449.173 369.833 33.0005 25.2996" xmlns="http://www.w3.org/2000/svg" version = "1.1">
<title>PCR casing.123dx</title>
<desc> made with 123D Design </desc>
<path d="M -447.252 389.373 L -447.567 388.198 L -447.567 388.194 L -447.673 386.983 L -447.673 371.036 L -447.673 370.983 L -447.64 370.983 L -437.673 370.983 L -437.673 373.973 L -437.673 373.983 L -427.706 373.983 L -427.673 373.983 L -427.673 370.993 L -427.673 370.983 L -427.64 370.983 L -417.673 370.983 L -417.673 386.929 L -417.673 386.983 L -417.673 386.987 L -417.779 388.198 L -417.78 388.202 L -418.095 389.377 L -418.097 389.38 L -418.611 390.483 L -418.613 390.486 L -419.311 391.482 L -419.313 391.485 L -420.173 392.345 L -420.177 392.347 L -421.173 393.045 L -421.177 393.046 L -422.279 393.56 L -422.283 393.562 L -423.457 393.876 L -423.461 393.877 L -424.673 393.983 L -440.62 393.983 L -440.673 393.983 L -440.677 393.982 L -441.889 393.876 L -441.893 393.875 L -443.067 393.56 L -443.071 393.559 L -444.173 393.045 L -444.177 393.042 L -445.173 392.345 L -445.176 392.342 L -446.036 391.482 L -446.038 391.479 L -446.736 390.483 L -446.737 390.479 L -447.251 389.377 z  M -436.501 380.767 L -436.503 380.769 L -437.002 381.481 L -437.003 381.483 L -437.37 382.27 L -437.372 382.273 L -437.596 383.112 L -437.597 383.115 L -437.673 383.98 L -437.673 383.983 L -437.597 384.848 L -437.597 384.851 L -437.372 385.69 L -437.372 385.693 L -437.004 386.48 L -437.003 386.483 L -436.505 387.195 L -436.503 387.197 L -435.889 387.811 L -435.887 387.813 L -435.176 388.311 L -435.173 388.313 L -434.386 388.68 L -434.383 388.681 L -433.544 388.906 L -433.541 388.907 L -432.676 388.983 L -432.673 388.983 L -431.808 388.907 L -431.805 388.907 L -430.966 388.682 L -430.963 388.681 L -430.176 388.314 L -430.173 388.313 L -429.462 387.815 L -429.459 387.813 L -428.845 387.199 L -428.843 387.197 L -428.345 386.485 L -428.343 386.483 L -427.976 385.696 L -427.975 385.693 L -427.75 384.854 L -427.749 384.851 L -427.673 383.986 L -427.673 383.983 L -427.749 383.118 L -427.749 383.115 L -427.974 382.276 L -427.975 382.273 L -428.342 381.486 L -428.343 381.483 L -428.841 380.771 L -428.843 380.769 L -429.457 380.155 L -429.459 380.153 L -430.171 379.655 L -430.173 379.653 L -430.96 379.286 L -430.963 379.285 L -431.802 379.06 L -431.805 379.059 L -432.67 378.983 L -432.673 378.983 L -433.538 379.059 L -433.541 379.059 L -434.38 379.284 L -434.383 379.285 L -435.171 379.652 L -435.173 379.653 L -435.885 380.151 L -435.887 380.153 z  " fill= "none" stroke="rgb(0,0,255)" stroke-width="0.05mm" />
</svg>
