<?xml version="1.0" standalone="no"?>
<!DOCTYPE svg PUBLIC "-//W3C//DTD SVG 1.1//EN"
"http://www.w3.org/Graphics/SVG/1.1/DTD/svg11.dtd">
<svg width="67.4175mm" height="121mm" viewBox="153.689 372.173 67.4175 121" xmlns="http://www.w3.org/2000/svg" version = "1.1">
<title>PCR casing.123dx</title>
<desc> made with 123D Design </desc>
<path d="M 210.606 410.822 L 210.82 410.972 L 210.821 410.972 L 211.057 411.082 L 211.058 411.083 L 211.309 411.15 L 211.31 411.15 L 211.57 411.173 L 211.571 411.173 L 211.83 411.15 L 211.831 411.15 L 212.083 411.082 L 212.084 411.082 L 212.32 410.972 L 212.321 410.971 L 212.534 410.822 L 212.535 410.821 L 212.719 410.637 L 212.719 410.636 L 212.869 410.423 L 212.869 410.422 L 212.979 410.186 L 212.98 410.185 L 213.047 409.933 L 213.047 409.933 L 213.07 409.673 L 213.07 409.672 L 213.047 409.412 L 213.047 409.412 L 212.979 409.16 L 212.979 409.159 L 212.869 408.923 L 212.868 408.922 L 212.719 408.709 L 212.718 408.708 L 212.534 408.524 L 212.533 408.523 L 212.32 408.374 L 212.319 408.373 L 212.083 408.263 L 212.082 408.263 L 211.83 408.196 L 211.829 408.196 L 211.57 408.173 L 211.569 408.173 L 211.309 408.196 L 211.309 408.196 L 211.057 408.263 L 211.056 408.264 L 210.82 408.374 L 210.819 408.374 L 210.606 408.524 L 210.605 408.524 L 210.421 408.709 L 210.42 408.709 L 210.271 408.923 L 210.27 408.924 L 210.16 409.16 L 210.16 409.161 L 210.093 409.412 L 210.093 409.413 L 210.07 409.673 L 210.07 409.674 L 210.093 409.933 L 210.093 409.934 L 210.16 410.186 L 210.161 410.187 L 210.271 410.423 L 210.271 410.424 L 210.421 410.637 L 210.421 410.638 L 210.606 410.822 z  M 210.16 455.16 L 210.16 455.161 L 210.093 455.412 L 210.093 455.413 L 210.07 455.673 L 210.07 455.674 L 210.093 455.933 L 210.093 455.934 L 210.16 456.186 L 210.161 456.187 L 210.271 456.423 L 210.271 456.424 L 210.421 456.637 L 210.421 456.638 L 210.606 456.822 L 210.606 456.822 L 210.82 456.972 L 210.821 456.972 L 211.057 457.082 L 211.058 457.083 L 211.309 457.15 L 211.31 457.15 L 211.57 457.173 L 211.571 457.173 L 211.83 457.15 L 211.831 457.15 L 212.083 457.082 L 212.084 457.082 L 212.32 456.972 L 212.321 456.971 L 212.534 456.822 L 212.535 456.821 L 212.719 456.637 L 212.719 456.636 L 212.869 456.423 L 212.869 456.422 L 212.979 456.186 L 212.98 456.185 L 213.047 455.933 L 213.047 455.933 L 213.07 455.673 L 213.07 455.672 L 213.047 455.412 L 213.047 455.412 L 212.979 455.16 L 212.979 455.159 L 212.869 454.923 L 212.868 454.922 L 212.719 454.709 L 212.718 454.708 L 212.534 454.524 L 212.533 454.523 L 212.32 454.374 L 212.319 454.374 L 212.083 454.263 L 212.082 454.263 L 211.83 454.196 L 211.829 454.196 L 211.57 454.173 L 211.569 454.173 L 211.309 454.196 L 211.309 454.196 L 211.057 454.263 L 211.056 454.264 L 210.82 454.374 L 210.819 454.374 L 210.606 454.524 L 210.605 454.524 L 210.421 454.709 L 210.42 454.709 L 210.271 454.923 L 210.27 454.924 z  M 213.047 469.412 L 213.047 469.412 L 213.07 469.672 L 213.07 469.673 L 213.047 469.933 L 213.047 469.933 L 212.98 470.185 L 212.979 470.186 L 212.869 470.422 L 212.869 470.423 L 212.719 470.636 L 212.719 470.637 L 212.535 470.821 L 212.534 470.822 L 212.321 470.971 L 212.32 470.972 L 212.084 471.082 L 212.083 471.082 L 211.831 471.15 L 211.83 471.15 L 211.571 471.173 L 211.57 471.173 L 211.31 471.15 L 211.309 471.15 L 211.058 471.083 L 211.057 471.082 L 210.821 470.972 L 210.82 470.972 L 210.606 470.822 L 210.606 470.822 L 210.421 470.638 L 210.421 470.637 L 210.271 470.424 L 210.271 470.423 L 210.161 470.187 L 210.16 470.186 L 210.093 469.934 L 210.093 469.933 L 210.07 469.674 L 210.07 469.673 L 210.093 469.413 L 210.093 469.412 L 210.16 469.161 L 210.16 469.16 L 210.27 468.924 L 210.271 468.923 L 210.42 468.709 L 210.421 468.709 L 210.605 468.524 L 210.606 468.524 L 210.819 468.374 L 210.82 468.374 L 211.056 468.264 L 211.057 468.263 L 211.309 468.196 L 211.309 468.196 L 211.569 468.173 L 211.57 468.173 L 211.829 468.196 L 211.83 468.196 L 212.082 468.263 L 212.083 468.263 L 212.319 468.373 L 212.32 468.374 L 212.533 468.523 L 212.534 468.524 L 212.718 468.708 L 212.719 468.709 L 212.868 468.922 L 212.869 468.923 L 212.979 469.159 L 212.979 469.16 z  M 211.57 394.173 L 211.829 394.196 L 211.83 394.196 L 212.082 394.263 L 212.083 394.263 L 212.319 394.374 L 212.32 394.374 L 212.533 394.523 L 212.534 394.524 L 212.718 394.708 L 212.719 394.709 L 212.868 394.922 L 212.869 394.923 L 212.979 395.159 L 212.979 395.16 L 213.047 395.412 L 213.047 395.412 L 213.07 395.672 L 213.07 395.673 L 213.047 395.933 L 213.047 395.933 L 212.98 396.185 L 212.979 396.186 L 212.869 396.422 L 212.869 396.423 L 212.719 396.636 L 212.719 396.637 L 212.535 396.821 L 212.534 396.822 L 212.321 396.971 L 212.32 396.972 L 212.084 397.082 L 212.083 397.082 L 211.831 397.15 L 211.83 397.15 L 211.571 397.173 L 211.57 397.173 L 211.31 397.15 L 211.309 397.15 L 211.058 397.083 L 211.057 397.082 L 210.821 396.972 L 210.82 396.972 L 210.606 396.822 L 210.606 396.822 L 210.421 396.638 L 210.421 396.637 L 210.271 396.424 L 210.271 396.423 L 210.161 396.187 L 210.16 396.186 L 210.093 395.934 L 210.093 395.933 L 210.07 395.674 L 210.07 395.673 L 210.093 395.413 L 210.093 395.412 L 210.16 395.161 L 210.16 395.16 L 210.27 394.924 L 210.271 394.923 L 210.42 394.709 L 210.421 394.709 L 210.605 394.524 L 210.606 394.524 L 210.819 394.374 L 210.82 394.374 L 211.056 394.264 L 211.057 394.263 L 211.309 394.196 L 211.309 394.196 L 211.569 394.173 z  M 178.342 487.673 L 159.815 487.673 L 159.753 487.673 L 159.753 487.552 L 159.753 451.355 L 159.743 451.355 L 156.754 451.355 L 156.754 451.229 L 156.754 413.673 L 156.764 413.673 L 159.753 413.673 L 159.753 377.793 L 159.753 377.673 L 178.28 377.673 L 178.342 377.673 L 178.342 380.663 L 178.342 380.673 L 198.276 380.673 L 198.342 380.673 L 198.342 377.683 L 198.342 377.673 L 217.977 377.673 L 218.042 377.673 L 218.042 487.307 L 218.042 487.673 L 198.408 487.673 L 198.342 487.673 L 198.342 484.683 L 198.342 484.673 L 178.409 484.673 L 178.342 484.673 L 178.342 487.663 z  " fill= "none" stroke="rgb(0,0,255)" stroke-width="0.05mm" />
</svg>
