<?xml version="1.0" standalone="no"?>
<!DOCTYPE svg PUBLIC "-//W3C//DTD SVG 1.1//EN"
"http://www.w3.org/Graphics/SVG/1.1/DTD/svg11.dtd">
<svg width="67.4175mm" height="121mm" viewBox="153.689 372.173 67.4175 121" xmlns="http://www.w3.org/2000/svg" version = "1.1">
<title>PCR casing.123dx</title>
<desc> made with 123D Design </desc>
<path d="M 188.042 437.673 L 188.032 437.673 L 185.042 437.673 L 185.042 447.64 L 185.042 447.673 L 185.052 447.673 L 188.042 447.673 L 188.042 437.707 z  M 156.764 451.355 L 156.754 451.355 L 156.754 413.799 L 156.754 413.673 L 159.743 413.673 L 159.753 413.673 L 159.753 377.793 L 159.753 377.673 L 159.815 377.673 L 178.342 377.673 L 178.342 377.683 L 178.342 380.673 L 178.409 380.673 L 198.342 380.673 L 198.342 380.663 L 198.342 377.673 L 198.408 377.673 L 218.042 377.673 L 218.042 378.04 L 218.042 487.673 L 217.976 487.673 L 198.342 487.673 L 198.342 487.663 L 198.342 484.673 L 198.275 484.673 L 178.342 484.673 L 178.342 484.683 L 178.342 487.673 L 178.28 487.673 L 159.753 487.673 L 159.753 451.476 L 159.753 451.355 z  M 188.042 417.706 L 188.042 427.673 L 185.052 427.673 L 185.042 427.673 L 185.042 427.64 L 185.042 417.673 L 188.032 417.673 L 188.042 417.673 z  " fill= "none" stroke="rgb(0,0,255)" stroke-width="0.05mm" />
</svg>
