<?xml version="1.0" standalone="no"?>
<!DOCTYPE svg PUBLIC "-//W3C//DTD SVG 1.1//EN"
"http://www.w3.org/Graphics/SVG/1.1/DTD/svg11.dtd">
<svg width="121mm" height="155.418mm" viewBox="-493.173 210.93 121 155.418" xmlns="http://www.w3.org/2000/svg" version = "1.1">
<title>PCR casing.123dx</title>
<desc> made with 123D Design </desc>
<path d="M -487.673 236.799 L -487.673 236.862 L -484.683 236.862 L -484.673 236.862 L -484.673 274.418 L -484.673 274.544 L -487.663 274.544 L -487.673 274.544 L -487.673 301.771 L -487.673 301.862 L -484.683 301.862 L -484.673 301.862 L -484.673 339.418 L -484.673 339.544 L -487.663 339.544 L -487.673 339.544 L -487.673 359.217 L -487.673 359.283 L -487.552 359.283 L -451.355 359.283 L -451.355 356.293 L -451.355 356.283 L -413.798 356.283 L -413.673 356.283 L -413.673 359.273 L -413.673 359.283 L -413.553 359.283 L -377.673 359.283 L -377.673 339.61 L -377.673 339.544 L -380.663 339.544 L -380.673 339.544 L -380.673 301.988 L -380.673 301.862 L -377.683 301.862 L -377.673 301.862 L -377.673 274.635 L -377.673 274.544 L -380.663 274.544 L -380.673 274.544 L -380.673 236.988 L -380.673 236.862 L -377.683 236.862 L -377.673 236.862 L -377.673 218.057 L -377.673 217.994 L -413.553 217.994 L -413.673 217.994 L -413.673 220.984 L -413.673 220.994 L -451.229 220.994 L -451.355 220.994 L -451.355 218.004 L -451.355 217.994 L -487.552 217.994 L -487.673 217.994 z  " fill= "none" stroke="rgb(0,0,255)" stroke-width="0.05mm" />
</svg>
